<svg id="Layer_1" data-name="Layer 1" xmlns="http://www.w3.org/2000/svg" xmlns:xlink="http://www.w3.org/1999/xlink" viewBox="0 0 1920 993.89"><defs><style>.cls-1,.cls-5{fill:none;}.cls-2{clip-path:url(#clip-path);}.cls-3{fill:#eaeaea;}.cls-4{fill:#fff;}.cls-5{stroke:#4d90fe;stroke-width:0.75px;}.cls-6{clip-path:url(#clip-path-2);}.cls-7{clip-path:url(#clip-path-3);}.cls-8{clip-path:url(#clip-path-4);}.cls-9{opacity:0;}.cls-10,.cls-11,.cls-17{fill:#003347;}.cls-11{font-size:31.99px;}.cls-11,.cls-17{font-family:ArialMT, Arial;}.cls-12{clip-path:url(#clip-path-6);}.cls-13{fill:#e03e52;}.cls-14{fill:#00a9ce;}.cls-15{fill:#c1b2b6;}.cls-16{clip-path:url(#clip-path-8);}.cls-17{font-size:31.99px;}.cls-18{clip-path:url(#clip-path-10);}.cls-19{clip-path:url(#clip-path-12);}.cls-20{clip-path:url(#clip-path-14);}</style><clipPath id="clip-path"><rect class="cls-1" y="-73.53" width="1920" height="1095"/></clipPath><clipPath id="clip-path-2"><rect class="cls-1" y="-66.03" width="1920" height="1080"/></clipPath><clipPath id="clip-path-3"><rect class="cls-1" x="49.5" y="26.97" width="1831.5" height="933"/></clipPath><clipPath id="clip-path-4"><rect class="cls-1" x="57" y="89.97" width="1816.5" height="862.5"/></clipPath><clipPath id="clip-path-6"><rect class="cls-1" x="166.53" y="107.96" width="1706.97" height="796.52"/></clipPath><clipPath id="clip-path-8"><rect class="cls-1" x="522" y="34.47" width="22.5" height="55.5"/></clipPath><clipPath id="clip-path-10"><rect class="cls-1" x="940.5" y="34.47" width="22.5" height="55.5"/></clipPath><clipPath id="clip-path-12"><rect class="cls-1" x="1155" y="34.47" width="22.5" height="55.5"/></clipPath><clipPath id="clip-path-14"><rect class="cls-1" x="1365" y="34.47" width="22.5" height="55.5"/></clipPath></defs><g class="cls-2"><rect class="cls-3" y="-73.53" width="1920" height="1095"/><rect class="cls-4" y="-73.53" width="1920" height="1095"/><rect class="cls-5" y="-73.53" width="1920" height="1095" rx="0.75"/><rect class="cls-4" y="-73.53" width="1920" height="1095"/></g><g class="cls-6"><rect class="cls-4" y="-66.03" width="1920" height="1080"/></g><g class="cls-7"><rect class="cls-4" x="49.5" y="26.97" width="1831.5" height="933"/></g><g class="cls-8"><rect class="cls-9" x="57" y="89.97" width="1816.5" height="862.5"/><path class="cls-10" d="M1868,903h1.5v1.5H1868m-9-1.5h1.5v1.5H1859m-9-1.5h1.5v1.5H1850m-9-1.5h1.5v1.5H1841m-9-1.5h1.5v1.5H1832m-9-1.5h1.5v1.5H1823m-9-1.5h1.5v1.5H1814m-9-1.5h1.5v1.5H1805m-9-1.5h1.5v1.5H1796m-9-1.5h1.5v1.5H1787m-9-1.5h1.5v1.5H1778m-9-1.5h1.5v1.5H1769m-9-1.5h1.5v1.5H1760m-9-1.5h1.5v1.5H1751m-9-1.5h1.5v1.5H1742m-9-1.5h1.5v1.5H1733m-9-1.5h1.5v1.5H1724m-9-1.5h1.5v1.5H1715m-9-1.5h1.5v1.5H1706m-9-1.5h1.5v1.5H1697m-9-1.5h1.5v1.5H1688m-9-1.5h1.5v1.5H1679m-9-1.5h1.5v1.5H1670m-9-1.5h1.5v1.5H1661m-9-1.5h1.5v1.5H1652m-9-1.5h1.5v1.5H1643m-9-1.5h1.5v1.5H1634m-9-1.5h1.51v1.5h-1.51m-9-1.5h1.5v1.5h-1.5m-9-1.5h1.5v1.5h-1.5m-9-1.5h1.5v1.5h-1.5m-9-1.5h1.51v1.5h-1.51m-9-1.5h1.5v1.5h-1.5m-9-1.5h1.5v1.5h-1.5m-9-1.5h1.5v1.5h-1.5m-9-1.5h1.5v1.5h-1.5m-9-1.5h1.5v1.5h-1.5m-9-1.5h1.5v1.5h-1.5m-9-1.5h1.5v1.5h-1.5m-9-1.5h1.5v1.5h-1.5m-9-1.5h1.5v1.5h-1.5m-9-1.5h1.5v1.5h-1.5m-9-1.5h1.5v1.5h-1.5m-9-1.5h1.5v1.5h-1.5m-9-1.5h1.5v1.5h-1.5m-9-1.5h1.5v1.5h-1.5m-9-1.5h1.5v1.5h-1.5m-9-1.5h1.5v1.5h-1.5m-9-1.5h1.5v1.5h-1.5m-9-1.5h1.5v1.5h-1.5m-9-1.5h1.5v1.5h-1.5m-9-1.5h1.5v1.5h-1.5m-9-1.5h1.5v1.5h-1.5m-9-1.5h1.5v1.5h-1.5m-9-1.5h1.5v1.5h-1.5m-9-1.5h1.5v1.5h-1.5m-9-1.5h1.5v1.5h-1.5m-9-1.5h1.5v1.5h-1.5m-9-1.5h1.5v1.5h-1.5m-9-1.5h1.5v1.5h-1.5m-9-1.5h1.5v1.5h-1.5m-9-1.5h1.5v1.5h-1.5m-9-1.5h1.5v1.5h-1.5m-9-1.5h1.5v1.5h-1.5m-9-1.5h1.5v1.5h-1.5m-9-1.5h1.5v1.5h-1.5m-9-1.5h1.5v1.5h-1.5m-9-1.5h1.5v1.5h-1.5m-9-1.5h1.5v1.5h-1.5m-9-1.5h1.5v1.5h-1.5m-9-1.5h1.5v1.5h-1.5m-9-1.5h1.5v1.5h-1.5m-9-1.5h1.5v1.5h-1.5m-9-1.5h1.5v1.5h-1.5m-9-1.5h1.51v1.5h-1.51m-9-1.5h1.5v1.5h-1.5m-9-1.5h1.5v1.5h-1.5m-9-1.5h1.5v1.5h-1.5m-9-1.5h1.51v1.5h-1.51m-9-1.5h1.5v1.5h-1.5m-9-1.5h1.5v1.5h-1.5m-9-1.5h1.5v1.5h-1.5m-9-1.5h1.5v1.5h-1.5m-9-1.5h1.5v1.5h-1.5m-9-1.5h1.5v1.5h-1.5m-9-1.5h1.5v1.5h-1.5m-9-1.5h1.5v1.5h-1.5m-9-1.5h1.5v1.5h-1.5m-9-1.5h1.5v1.5h-1.5m-9-1.5h1.5v1.5h-1.5m-9-1.5h1.5v1.5h-1.5m-9-1.5h1.5v1.5h-1.5m-9-1.5h1.5v1.5h-1.5m-9-1.5h1.5v1.5h-1.5m-9-1.5h1.5v1.5h-1.5m-9-1.5h1.5v1.5h-1.5m-9-1.5h1.5v1.5h-1.5m-9-1.5h1.5v1.5h-1.5m-9-1.5h1.5v1.5h-1.5m-9-1.5h1.5v1.5h-1.5m-9-1.5h1.5v1.5h-1.5m-9-1.5h1.5v1.5h-1.5m-9-1.5h1.5v1.5h-1.5m-9-1.5h1.5v1.5h-1.5m-9-1.5h1.5v1.5h-1.5m-9-1.5h1.5v1.5h-1.5m-9-1.5h1.5v1.5h-1.5m-9-1.5h1.5v1.5h-1.5m-9-1.5h1.5v1.5h-1.5m-9-1.5h1.5v1.5h-1.5m-9-1.5h1.5v1.5h-1.5m-9-1.5h1.5v1.5h-1.5m-9-1.5h1.5v1.5h-1.5m-9-1.5h1.5v1.5h-1.5m-9-1.5h1.5v1.5h-1.5m-9-1.5h1.5v1.5h-1.5m-9-1.5h1.5v1.5h-1.5m-9-1.5h1.5v1.5h-1.5m-9-1.5h1.5v1.5h-1.5m-9-1.5h1.5v1.5h-1.5m-9-1.5h1.5v1.5h-1.5m-9-1.5h1.51v1.5H778.7m-9-1.5h1.5v1.5h-1.5m-9-1.5h1.5v1.5h-1.5m-9-1.5h1.5v1.5h-1.5m-9-1.5h1.51v1.5h-1.51m-9-1.5h1.5v1.5h-1.5m-9-1.5h1.5v1.5h-1.5m-9-1.5h1.5v1.5h-1.5m-9-1.5h1.5v1.5h-1.5m-9-1.5h1.5v1.5h-1.5m-9-1.5h1.5v1.5h-1.5m-9-1.5h1.5v1.5h-1.5m-9-1.5h1.5v1.5h-1.5m-9-1.5h1.5v1.5h-1.5m-9-1.5h1.5v1.5h-1.5m-9-1.5h1.5v1.5h-1.5m-9-1.5h1.5v1.5h-1.5m-9-1.5h1.5v1.5h-1.5m-9-1.5h1.5v1.5h-1.5m-9-1.5h1.5v1.5h-1.5m-9-1.5h1.5v1.5h-1.5m-9-1.5h1.5v1.5h-1.5m-9-1.5h1.5v1.5h-1.5m-9-1.5h1.5v1.5h-1.5m-9-1.5h1.5v1.5h-1.5m-9-1.5h1.5v1.5h-1.5m-9-1.5h1.5v1.5h-1.5m-9-1.5h1.5v1.5h-1.5m-9-1.5h1.5v1.5h-1.5m-9-1.5h1.5v1.5h-1.5m-9-1.5h1.5v1.5h-1.5m-9-1.5h1.5v1.5h-1.5m-9-1.5h1.5v1.5h-1.5m-9-1.5h1.5v1.5h-1.5m-9-1.5h1.5v1.5h-1.5m-9-1.5h1.5v1.5h-1.5m-9-1.5h1.5v1.5h-1.5m-9-1.5h1.5v1.5h-1.5m-9-1.5h1.5v1.5h-1.5m-9-1.5h1.5v1.5h-1.5m-9-1.5h1.5v1.5h-1.5m-9-1.5h1.5v1.5h-1.5m-9-1.5h1.5v1.5h-1.5m-9-1.5h1.51v1.5h-1.51m-9-1.5h1.5v1.5h-1.5m-9-1.5h1.5v1.5h-1.5m-9-1.5h1.5v1.5h-1.5m-9-1.5h1.51v1.5h-1.51m-9-1.5h1.5v1.5h-1.5m-9-1.5h1.5v1.5h-1.5m-9-1.5h1.5v1.5h-1.5m-9-1.5h1.5v1.5h-1.5m-9-1.5h1.5v1.5h-1.5m-9-1.5h1.5v1.5h-1.5m-9-1.5h1.5v1.5h-1.5m-9-1.5h1.5v1.5h-1.5m-9-1.5h1.5v1.5h-1.5m-9-1.5h1.5v1.5h-1.5m-9-1.5h1.5v1.5h-1.5m-9-1.5h1.5v1.5h-1.5m-9-1.5h1.5v1.5h-1.5m-9-1.5h1.5v1.5h-1.5m-9-1.5h1.5v1.5h-1.5m-9-1.5H213v1.5h-1.5m-9-1.5H204v1.5h-1.5m-9-1.5H195v1.5h-1.5m-9-1.5H186v1.5h-1.5m-9-1.5H177v1.5h-1.5m-9-1.5H168v1.5h-1.5"/><text class="cls-11" transform="translate(133.73 913.97)">0</text><path class="cls-10" d="M1868,789.63h1.5v1.5H1868m-9-1.5h1.5v1.5H1859m-9-1.5h1.5v1.5H1850m-9-1.5h1.5v1.5H1841m-9-1.5h1.5v1.5H1832m-9-1.5h1.5v1.5H1823m-9-1.5h1.5v1.5H1814m-9-1.5h1.5v1.5H1805m-9-1.5h1.5v1.5H1796m-9-1.5h1.5v1.5H1787m-9-1.5h1.5v1.5H1778m-9-1.5h1.5v1.5H1769m-9-1.5h1.5v1.5H1760m-9-1.5h1.5v1.5H1751m-9-1.5h1.5v1.5H1742m-9-1.5h1.5v1.5H1733m-9-1.5h1.5v1.5H1724m-9-1.5h1.5v1.5H1715m-9-1.5h1.5v1.5H1706m-9-1.5h1.5v1.5H1697m-9-1.5h1.5v1.5H1688m-9-1.5h1.5v1.5H1679m-9-1.5h1.5v1.5H1670m-9-1.5h1.5v1.5H1661m-9-1.5h1.5v1.5H1652m-9-1.5h1.5v1.5H1643m-9-1.5h1.5v1.5H1634m-9-1.5h1.51v1.5h-1.51m-9-1.5h1.5v1.5h-1.5m-9-1.5h1.5v1.5h-1.5m-9-1.5h1.5v1.5h-1.5m-9-1.5h1.51v1.5h-1.51m-9-1.5h1.5v1.5h-1.5m-9-1.5h1.5v1.5h-1.5m-9-1.5h1.5v1.5h-1.5m-9-1.5h1.5v1.5h-1.5m-9-1.5h1.5v1.5h-1.5m-9-1.5h1.5v1.5h-1.5m-9-1.5h1.5v1.5h-1.5m-9-1.5h1.5v1.5h-1.5m-9-1.5h1.5v1.5h-1.5m-9-1.5h1.5v1.5h-1.5m-9-1.5h1.5v1.5h-1.5m-9-1.5h1.5v1.5h-1.5m-9-1.5h1.5v1.5h-1.5m-9-1.5h1.5v1.5h-1.5m-9-1.5h1.5v1.5h-1.5m-9-1.5h1.5v1.5h-1.5m-9-1.5h1.5v1.5h-1.5m-9-1.5h1.5v1.5h-1.5m-9-1.5h1.5v1.5h-1.5m-9-1.5h1.5v1.5h-1.5m-9-1.5h1.5v1.5h-1.5m-9-1.5h1.5v1.5h-1.5m-9-1.5h1.5v1.5h-1.5m-9-1.5h1.5v1.5h-1.5m-9-1.5h1.5v1.5h-1.5m-9-1.5h1.5v1.5h-1.5m-9-1.5h1.5v1.5h-1.5m-9-1.5h1.5v1.5h-1.5m-9-1.5h1.5v1.5h-1.5m-9-1.5h1.5v1.5h-1.5m-9-1.5h1.5v1.5h-1.5m-9-1.5h1.5v1.5h-1.5m-9-1.5h1.5v1.5h-1.5m-9-1.5h1.5v1.5h-1.5m-9-1.5h1.5v1.5h-1.5m-9-1.5h1.5v1.5h-1.5m-9-1.5h1.5v1.5h-1.5m-9-1.5h1.5v1.5h-1.5m-9-1.5h1.51v1.5h-1.51m-9-1.5h1.5v1.5h-1.5m-9-1.5h1.5v1.5h-1.5m-9-1.5h1.5v1.5h-1.5m-9-1.5h1.51v1.5h-1.51m-9-1.5h1.5v1.5h-1.5m-9-1.5h1.5v1.5h-1.5m-9-1.5h1.5v1.5h-1.5m-9-1.5h1.51v1.5h-1.51m-9-1.5h1.5v1.5h-1.5m-9-1.5h1.5v1.5h-1.5m-9-1.5h1.5v1.5h-1.5m-9-1.5h1.5v1.5h-1.5m-9-1.5h1.5v1.5h-1.5m-9-1.5h1.5v1.5h-1.5m-9-1.5h1.5v1.5h-1.5m-9-1.5h1.5v1.5h-1.5m-9-1.5h1.5v1.5h-1.5m-9-1.5h1.5v1.5h-1.5m-9-1.5h1.5v1.5h-1.5m-9-1.5h1.5v1.5h-1.5m-9-1.5h1.5v1.5h-1.5m-9-1.5h1.5v1.5h-1.5m-9-1.5h1.5v1.5h-1.5m-9-1.5h1.5v1.5h-1.5m-9-1.5h1.5v1.5h-1.5m-9-1.5h1.5v1.5h-1.5m-9-1.5h1.5v1.5h-1.5m-9-1.5h1.5v1.5h-1.5m-9-1.5h1.5v1.5h-1.5m-9-1.5h1.5v1.5h-1.5m-9-1.5h1.5v1.5h-1.5m-9-1.5h1.5v1.5h-1.5m-9-1.5h1.5v1.5h-1.5m-9-1.5h1.5v1.5h-1.5m-9-1.5h1.5v1.5h-1.5m-9-1.5h1.5v1.5h-1.5m-9-1.5h1.5v1.5h-1.5m-9-1.5h1.5v1.5h-1.5m-9-1.5h1.5v1.5h-1.5m-9-1.5h1.5v1.5h-1.5m-9-1.5h1.5v1.5h-1.5m-9-1.5h1.5v1.5h-1.5m-9-1.5h1.5v1.5h-1.5m-9-1.5h1.5v1.5h-1.5m-9-1.5h1.5v1.5h-1.5m-9-1.5h1.5v1.5h-1.5m-9-1.5h1.51v1.5h-1.51m-9-1.5h1.5v1.5h-1.5m-9-1.5h1.5v1.5h-1.5m-9-1.5h1.5v1.5h-1.5m-9-1.5h1.51v1.5H778.7m-9-1.5h1.5v1.5h-1.5m-9-1.5h1.5v1.5h-1.5m-9-1.5h1.5v1.5h-1.5m-9-1.5h1.5v1.5h-1.5m-9-1.5h1.5v1.5h-1.5m-9-1.5h1.5v1.5h-1.5m-9-1.5h1.5v1.5h-1.5m-9-1.5h1.5v1.5h-1.5m-9-1.5h1.5v1.5h-1.5m-9-1.5h1.5v1.5h-1.5m-9-1.5h1.5v1.5h-1.5m-9-1.5h1.5v1.5h-1.5m-9-1.5h1.5v1.5h-1.5m-9-1.5h1.5v1.5h-1.5m-9-1.5h1.5v1.5h-1.5m-9-1.5h1.5v1.5h-1.5m-9-1.5h1.5v1.5h-1.5m-9-1.5h1.5v1.5h-1.5m-9-1.5h1.5v1.5h-1.5m-9-1.5h1.5v1.5h-1.5m-9-1.5h1.5v1.5h-1.5m-9-1.5h1.5v1.5h-1.5m-9-1.5h1.5v1.5h-1.5m-9-1.5h1.5v1.5h-1.5m-9-1.5h1.5v1.5h-1.5m-9-1.5h1.5v1.5h-1.5m-9-1.5h1.5v1.5h-1.5m-9-1.5h1.5v1.5h-1.5m-9-1.5h1.5v1.5h-1.5m-9-1.5h1.5v1.5h-1.5m-9-1.5h1.5v1.5h-1.5m-9-1.5h1.5v1.5h-1.5m-9-1.5h1.5v1.5h-1.5m-9-1.5h1.5v1.5h-1.5m-9-1.5h1.5v1.5h-1.5m-9-1.5h1.5v1.5h-1.5m-9-1.5h1.5v1.5h-1.5m-9-1.5h1.5v1.5h-1.5m-9-1.5h1.5v1.5h-1.5m-9-1.5h1.5v1.5h-1.5m-9-1.5h1.5v1.5h-1.5m-9-1.5h1.5v1.5h-1.5m-9-1.5h1.51v1.5h-1.51m-9-1.5h1.5v1.5h-1.5m-9-1.5h1.5v1.5h-1.5m-9-1.5h1.5v1.5h-1.5m-9-1.5h1.51v1.5h-1.51m-9-1.5h1.5v1.5h-1.5m-9-1.5h1.5v1.5h-1.5m-9-1.5h1.5v1.5h-1.5m-9-1.5h1.5v1.5h-1.5m-9-1.5h1.5v1.5h-1.5m-9-1.5h1.5v1.5h-1.5m-9-1.5h1.5v1.5h-1.5m-9-1.5h1.5v1.5h-1.5m-9-1.5h1.5v1.5h-1.5m-9-1.5h1.5v1.5h-1.5m-9-1.5h1.5v1.5h-1.5m-9-1.5h1.5v1.5h-1.5m-9-1.5h1.5v1.5h-1.5m-9-1.5h1.5v1.5h-1.5m-9-1.5h1.5v1.5h-1.5m-9-1.5H213v1.5h-1.5m-9-1.5H204v1.5h-1.5m-9-1.5H195v1.5h-1.5m-9-1.5H186v1.5h-1.5m-9-1.5H177v1.5h-1.5m-9-1.5H168v1.5h-1.5"/><text class="cls-11" transform="translate(115.93 800.61)">20</text><path class="cls-10" d="M1868,676.27h1.5v1.49H1868m-9-1.49h1.5v1.49H1859m-9-1.49h1.5v1.49H1850m-9-1.49h1.5v1.49H1841m-9-1.49h1.5v1.49H1832m-9-1.49h1.5v1.49H1823m-9-1.49h1.5v1.49H1814m-9-1.49h1.5v1.49H1805m-9-1.49h1.5v1.49H1796m-9-1.49h1.5v1.49H1787m-9-1.49h1.5v1.49H1778m-9-1.49h1.5v1.49H1769m-9-1.49h1.5v1.49H1760m-9-1.49h1.5v1.49H1751m-9-1.49h1.5v1.49H1742m-9-1.49h1.5v1.49H1733m-9-1.49h1.5v1.49H1724m-9-1.49h1.5v1.49H1715m-9-1.49h1.5v1.49H1706m-9-1.49h1.5v1.49H1697m-9-1.49h1.5v1.49H1688m-9-1.49h1.5v1.49H1679m-9-1.49h1.5v1.49H1670m-9-1.49h1.5v1.49H1661m-9-1.49h1.5v1.49H1652m-9-1.49h1.5v1.49H1643m-9-1.49h1.5v1.49H1634m-9-1.49h1.51v1.49h-1.51m-9-1.49h1.5v1.49h-1.5m-9-1.49h1.5v1.49h-1.5m-9-1.49h1.5v1.49h-1.5m-9-1.49h1.51v1.49h-1.51m-9-1.49h1.5v1.49h-1.5m-9-1.49h1.5v1.49h-1.5m-9-1.49h1.5v1.49h-1.5m-9-1.49h1.5v1.49h-1.5m-9-1.49h1.5v1.49h-1.5m-9-1.49h1.5v1.49h-1.5m-9-1.49h1.5v1.49h-1.5m-9-1.49h1.5v1.49h-1.5m-9-1.49h1.5v1.49h-1.5m-9-1.49h1.5v1.49h-1.5m-9-1.49h1.5v1.49h-1.5m-9-1.49h1.5v1.49h-1.5m-9-1.49h1.5v1.49h-1.5m-9-1.49h1.5v1.49h-1.5m-9-1.49h1.5v1.49h-1.5m-9-1.49h1.5v1.49h-1.5m-9-1.49h1.5v1.49h-1.5m-9-1.49h1.5v1.49h-1.5m-9-1.49h1.5v1.49h-1.5m-9-1.49h1.5v1.49h-1.5m-9-1.49h1.5v1.49h-1.5m-9-1.49h1.5v1.49h-1.5m-9-1.49h1.5v1.49h-1.5m-9-1.49h1.5v1.49h-1.5m-9-1.49h1.5v1.49h-1.5m-9-1.49h1.5v1.49h-1.5m-9-1.49h1.5v1.49h-1.5m-9-1.49h1.5v1.49h-1.5m-9-1.49h1.5v1.49h-1.5m-9-1.49h1.5v1.49h-1.5m-9-1.49h1.5v1.49h-1.5m-9-1.49h1.5v1.49h-1.5m-9-1.49h1.5v1.49h-1.5m-9-1.49h1.5v1.49h-1.5m-9-1.49h1.5v1.49h-1.5m-9-1.49h1.5v1.49h-1.5m-9-1.49h1.5v1.49h-1.5m-9-1.49h1.5v1.49h-1.5m-9-1.49h1.51v1.49h-1.51m-9-1.49h1.5v1.49h-1.5m-9-1.49h1.5v1.49h-1.5m-9-1.49h1.5v1.49h-1.5m-9-1.49h1.51v1.49h-1.51m-9-1.49h1.5v1.49h-1.5m-9-1.49h1.5v1.49h-1.5m-9-1.49h1.5v1.49h-1.5m-9-1.49h1.51v1.49h-1.51m-9-1.49h1.5v1.49h-1.5m-9-1.49h1.5v1.49h-1.5m-9-1.49h1.5v1.49h-1.5m-9-1.49h1.5v1.49h-1.5m-9-1.49h1.5v1.49h-1.5m-9-1.49h1.5v1.49h-1.5m-9-1.49h1.5v1.49h-1.5m-9-1.49h1.5v1.49h-1.5m-9-1.49h1.5v1.49h-1.5m-9-1.49h1.5v1.49h-1.5m-9-1.49h1.5v1.49h-1.5m-9-1.49h1.5v1.49h-1.5m-9-1.49h1.5v1.49h-1.5m-9-1.49h1.5v1.49h-1.5m-9-1.49h1.5v1.49h-1.5m-9-1.49h1.5v1.49h-1.5m-9-1.49h1.5v1.49h-1.5m-9-1.49h1.5v1.49h-1.5m-9-1.49h1.5v1.49h-1.5m-9-1.49h1.5v1.49h-1.5m-9-1.49h1.5v1.49h-1.5m-9-1.49h1.5v1.49h-1.5m-9-1.49h1.5v1.49h-1.5m-9-1.49h1.5v1.49h-1.5m-9-1.49h1.5v1.49h-1.5m-9-1.49h1.5v1.49h-1.5m-9-1.49h1.5v1.49h-1.5m-9-1.49h1.5v1.49h-1.5m-9-1.49h1.5v1.49h-1.5m-9-1.49h1.5v1.49h-1.5m-9-1.49h1.5v1.49h-1.5m-9-1.49h1.5v1.49h-1.5m-9-1.49h1.5v1.49h-1.5m-9-1.49h1.5v1.49h-1.5m-9-1.49h1.5v1.49h-1.5m-9-1.49h1.5v1.49h-1.5m-9-1.49h1.5v1.49h-1.5m-9-1.49h1.5v1.49h-1.5m-9-1.49h1.51v1.49h-1.51m-9-1.49h1.5v1.49h-1.5m-9-1.49h1.5v1.49h-1.5m-9-1.49h1.5v1.49h-1.5m-9-1.49h1.51v1.49H778.7m-9-1.49h1.5v1.49h-1.5m-9-1.49h1.5v1.49h-1.5m-9-1.49h1.5v1.49h-1.5m-9-1.49h1.5v1.49h-1.5m-9-1.49h1.5v1.49h-1.5m-9-1.49h1.5v1.49h-1.5m-9-1.49h1.5v1.49h-1.5m-9-1.49h1.5v1.49h-1.5m-9-1.49h1.5v1.49h-1.5m-9-1.49h1.5v1.49h-1.5m-9-1.49h1.5v1.49h-1.5m-9-1.49h1.5v1.49h-1.5m-9-1.49h1.5v1.49h-1.5m-9-1.49h1.5v1.49h-1.5m-9-1.49h1.5v1.49h-1.5m-9-1.49h1.5v1.49h-1.5m-9-1.49h1.5v1.49h-1.5m-9-1.49h1.5v1.49h-1.5m-9-1.49h1.5v1.49h-1.5m-9-1.49h1.5v1.49h-1.5m-9-1.49h1.5v1.49h-1.5m-9-1.49h1.5v1.49h-1.5m-9-1.49h1.5v1.49h-1.5m-9-1.49h1.5v1.49h-1.5m-9-1.49h1.5v1.49h-1.5m-9-1.49h1.5v1.49h-1.5m-9-1.49h1.5v1.49h-1.5m-9-1.49h1.5v1.49h-1.5m-9-1.49h1.5v1.49h-1.5m-9-1.49h1.5v1.49h-1.5m-9-1.49h1.5v1.49h-1.5m-9-1.49h1.5v1.49h-1.5m-9-1.49h1.5v1.49h-1.5m-9-1.49h1.5v1.49h-1.5m-9-1.49h1.5v1.49h-1.5m-9-1.49h1.5v1.49h-1.5m-9-1.49h1.5v1.49h-1.5m-9-1.49h1.5v1.49h-1.5m-9-1.49h1.5v1.49h-1.5m-9-1.49h1.5v1.49h-1.5m-9-1.49h1.5v1.49h-1.5m-9-1.49h1.5v1.49h-1.5m-9-1.49h1.51v1.49h-1.51m-9-1.49h1.5v1.49h-1.5m-9-1.49h1.5v1.49h-1.5m-9-1.49h1.5v1.49h-1.5m-9-1.49h1.51v1.49h-1.51m-9-1.49h1.5v1.49h-1.5m-9-1.49h1.5v1.49h-1.5m-9-1.49h1.5v1.49h-1.5m-9-1.49h1.5v1.49h-1.5m-9-1.49h1.5v1.49h-1.5m-9-1.49h1.5v1.49h-1.5m-9-1.49h1.5v1.49h-1.5m-9-1.49h1.5v1.49h-1.5m-9-1.49h1.5v1.49h-1.5m-9-1.49h1.5v1.49h-1.5m-9-1.49h1.5v1.49h-1.5m-9-1.49h1.5v1.49h-1.5m-9-1.49h1.5v1.49h-1.5m-9-1.49h1.5v1.49h-1.5m-9-1.49h1.5v1.49h-1.5m-9-1.49H213v1.49h-1.5m-9-1.49H204v1.49h-1.5m-9-1.49H195v1.49h-1.5m-9-1.49H186v1.49h-1.5m-9-1.49H177v1.49h-1.5m-9-1.49H168v1.49h-1.5"/><text class="cls-11" transform="translate(115.93 687.25)">40</text><path class="cls-10" d="M1868,562.9h1.5v1.5H1868m-9-1.5h1.5v1.5H1859m-9-1.5h1.5v1.5H1850m-9-1.5h1.5v1.5H1841m-9-1.5h1.5v1.5H1832m-9-1.5h1.5v1.5H1823m-9-1.5h1.5v1.5H1814m-9-1.5h1.5v1.5H1805m-9-1.5h1.5v1.5H1796m-9-1.5h1.5v1.5H1787m-9-1.5h1.5v1.5H1778m-9-1.5h1.5v1.5H1769m-9-1.5h1.5v1.5H1760m-9-1.5h1.5v1.5H1751m-9-1.5h1.5v1.5H1742m-9-1.5h1.5v1.5H1733m-9-1.5h1.5v1.5H1724m-9-1.5h1.5v1.5H1715m-9-1.5h1.5v1.5H1706m-9-1.5h1.5v1.5H1697m-9-1.5h1.5v1.5H1688m-9-1.5h1.5v1.5H1679m-9-1.5h1.5v1.5H1670m-9-1.5h1.5v1.5H1661m-9-1.5h1.5v1.5H1652m-9-1.5h1.5v1.5H1643m-9-1.5h1.5v1.5H1634m-9-1.5h1.51v1.5h-1.51m-9-1.5h1.5v1.5h-1.5m-9-1.5h1.5v1.5h-1.5m-9-1.5h1.5v1.5h-1.5m-9-1.5h1.51v1.5h-1.51m-9-1.5h1.5v1.5h-1.5m-9-1.5h1.5v1.5h-1.5m-9-1.5h1.5v1.5h-1.5m-9-1.5h1.5v1.5h-1.5m-9-1.5h1.5v1.5h-1.5m-9-1.5h1.5v1.5h-1.5m-9-1.5h1.5v1.5h-1.5m-9-1.5h1.5v1.5h-1.5m-9-1.5h1.5v1.5h-1.5m-9-1.5h1.5v1.5h-1.5m-9-1.5h1.5v1.5h-1.5m-9-1.5h1.5v1.5h-1.5m-9-1.5h1.5v1.5h-1.5m-9-1.5h1.5v1.5h-1.5m-9-1.5h1.5v1.5h-1.5m-9-1.5h1.5v1.5h-1.5m-9-1.5h1.5v1.5h-1.5m-9-1.5h1.5v1.5h-1.5m-9-1.5h1.5v1.5h-1.5m-9-1.5h1.5v1.5h-1.5m-9-1.5h1.5v1.5h-1.5m-9-1.5h1.5v1.5h-1.5m-9-1.5h1.5v1.5h-1.5m-9-1.5h1.5v1.5h-1.5m-9-1.5h1.5v1.5h-1.5m-9-1.5h1.5v1.5h-1.5m-9-1.5h1.5v1.5h-1.5m-9-1.5h1.5v1.5h-1.5m-9-1.5h1.5v1.5h-1.5m-9-1.5h1.5v1.5h-1.5m-9-1.5h1.5v1.5h-1.5m-9-1.5h1.5v1.5h-1.5m-9-1.5h1.5v1.5h-1.5m-9-1.5h1.5v1.5h-1.5m-9-1.5h1.5v1.5h-1.5m-9-1.5h1.5v1.5h-1.5m-9-1.5h1.5v1.5h-1.5m-9-1.5h1.5v1.5h-1.5m-9-1.5h1.51v1.5h-1.51m-9-1.5h1.5v1.5h-1.5m-9-1.5h1.5v1.5h-1.5m-9-1.5h1.5v1.5h-1.5m-9-1.5h1.51v1.5h-1.51m-9-1.5h1.5v1.5h-1.5m-9-1.5h1.5v1.5h-1.5m-9-1.5h1.5v1.5h-1.5m-9-1.5h1.51v1.5h-1.51m-9-1.5h1.5v1.5h-1.5m-9-1.5h1.5v1.5h-1.5m-9-1.5h1.5v1.5h-1.5m-9-1.5h1.5v1.5h-1.5m-9-1.5h1.5v1.5h-1.5m-9-1.5h1.5v1.5h-1.5m-9-1.5h1.5v1.5h-1.5m-9-1.5h1.5v1.5h-1.5m-9-1.5h1.5v1.5h-1.5m-9-1.5h1.5v1.5h-1.5m-9-1.5h1.5v1.5h-1.5m-9-1.5h1.5v1.5h-1.5m-9-1.5h1.5v1.5h-1.5m-9-1.5h1.5v1.5h-1.5m-9-1.5h1.5v1.5h-1.5m-9-1.5h1.5v1.5h-1.5m-9-1.5h1.5v1.5h-1.5m-9-1.5h1.5v1.5h-1.5m-9-1.5h1.5v1.5h-1.5m-9-1.5h1.5v1.5h-1.5m-9-1.5h1.5v1.5h-1.5m-9-1.5h1.5v1.5h-1.5m-9-1.5h1.5v1.5h-1.5m-9-1.5h1.5v1.5h-1.5m-9-1.5h1.5v1.5h-1.5m-9-1.5h1.5v1.5h-1.5m-9-1.5h1.5v1.5h-1.5m-9-1.5h1.5v1.5h-1.5m-9-1.5h1.5v1.5h-1.5m-9-1.5h1.5v1.5h-1.5m-9-1.5h1.5v1.5h-1.5m-9-1.5h1.5v1.5h-1.5m-9-1.5h1.5v1.5h-1.5m-9-1.5h1.5v1.5h-1.5m-9-1.5h1.5v1.5h-1.5m-9-1.5h1.5v1.5h-1.5m-9-1.5h1.5v1.5h-1.5m-9-1.5h1.5v1.5h-1.5m-9-1.5h1.51v1.5h-1.51m-9-1.5h1.5v1.5h-1.5m-9-1.5h1.5v1.5h-1.5m-9-1.5h1.5v1.5h-1.5m-9-1.5h1.51v1.5H778.7m-9-1.5h1.5v1.5h-1.5m-9-1.5h1.5v1.5h-1.5m-9-1.5h1.5v1.5h-1.5m-9-1.5h1.5v1.5h-1.5m-9-1.5h1.5v1.5h-1.5m-9-1.5h1.5v1.5h-1.5m-9-1.5h1.5v1.5h-1.5m-9-1.5h1.5v1.5h-1.5m-9-1.5h1.5v1.5h-1.5m-9-1.5h1.5v1.5h-1.5m-9-1.5h1.5v1.5h-1.5m-9-1.5h1.5v1.5h-1.5m-9-1.5h1.5v1.5h-1.5m-9-1.5h1.5v1.5h-1.5m-9-1.5h1.5v1.5h-1.5m-9-1.5h1.5v1.5h-1.5m-9-1.5h1.5v1.5h-1.5m-9-1.5h1.5v1.5h-1.5m-9-1.5h1.5v1.5h-1.5m-9-1.5h1.5v1.5h-1.5m-9-1.5h1.5v1.5h-1.5m-9-1.5h1.5v1.5h-1.5m-9-1.5h1.5v1.5h-1.5m-9-1.5h1.5v1.5h-1.5m-9-1.5h1.5v1.5h-1.5m-9-1.5h1.5v1.5h-1.5m-9-1.5h1.5v1.5h-1.5m-9-1.5h1.5v1.5h-1.5m-9-1.5h1.5v1.5h-1.5m-9-1.5h1.5v1.5h-1.5m-9-1.5h1.5v1.5h-1.5m-9-1.5h1.5v1.5h-1.5m-9-1.5h1.5v1.5h-1.5m-9-1.5h1.5v1.5h-1.5m-9-1.5h1.5v1.5h-1.5m-9-1.5h1.5v1.5h-1.5m-9-1.5h1.5v1.5h-1.5m-9-1.5h1.5v1.5h-1.5m-9-1.5h1.5v1.5h-1.5m-9-1.5h1.5v1.5h-1.5m-9-1.5h1.5v1.5h-1.5m-9-1.5h1.5v1.5h-1.5m-9-1.5h1.51v1.5h-1.51m-9-1.5h1.5v1.5h-1.5m-9-1.5h1.5v1.5h-1.5m-9-1.5h1.5v1.5h-1.5m-9-1.5h1.51v1.5h-1.51m-9-1.5h1.5v1.5h-1.5m-9-1.5h1.5v1.5h-1.5m-9-1.5h1.5v1.5h-1.5m-9-1.5h1.5v1.5h-1.5m-9-1.5h1.5v1.5h-1.5m-9-1.5h1.5v1.5h-1.5m-9-1.5h1.5v1.5h-1.5m-9-1.5h1.5v1.5h-1.5m-9-1.5h1.5v1.5h-1.5m-9-1.5h1.5v1.5h-1.5m-9-1.5h1.5v1.5h-1.5m-9-1.5h1.5v1.5h-1.5m-9-1.5h1.5v1.5h-1.5m-9-1.5h1.5v1.5h-1.5m-9-1.5h1.5v1.5h-1.5m-9-1.5H213v1.5h-1.5m-9-1.5H204v1.5h-1.5m-9-1.5H195v1.5h-1.5m-9-1.5H186v1.5h-1.5m-9-1.5H177v1.5h-1.5m-9-1.5H168v1.5h-1.5"/><text class="cls-11" transform="translate(115.93 573.89)">60</text><path class="cls-10" d="M1868,449.54h1.5V451H1868m-9-1.5h1.5V451H1859m-9-1.5h1.5V451H1850m-9-1.5h1.5V451H1841m-9-1.5h1.5V451H1832m-9-1.5h1.5V451H1823m-9-1.5h1.5V451H1814m-9-1.5h1.5V451H1805m-9-1.5h1.5V451H1796m-9-1.5h1.5V451H1787m-9-1.5h1.5V451H1778m-9-1.5h1.5V451H1769m-9-1.5h1.5V451H1760m-9-1.5h1.5V451H1751m-9-1.5h1.5V451H1742m-9-1.5h1.5V451H1733m-9-1.5h1.5V451H1724m-9-1.5h1.5V451H1715m-9-1.5h1.5V451H1706m-9-1.5h1.5V451H1697m-9-1.5h1.5V451H1688m-9-1.5h1.5V451H1679m-9-1.5h1.5V451H1670m-9-1.5h1.5V451H1661m-9-1.5h1.5V451H1652m-9-1.5h1.5V451H1643m-9-1.5h1.5V451H1634m-9-1.5h1.51V451h-1.51m-9-1.5h1.5V451h-1.5m-9-1.5h1.5V451h-1.5m-9-1.5h1.5V451h-1.5m-9-1.5h1.51V451h-1.51m-9-1.5h1.5V451h-1.5m-9-1.5h1.5V451h-1.5m-9-1.5h1.5V451h-1.5m-9-1.5h1.5V451h-1.5m-9-1.5h1.5V451h-1.5m-9-1.5h1.5V451h-1.5m-9-1.5h1.5V451h-1.5m-9-1.5h1.5V451h-1.5m-9-1.5h1.5V451h-1.5m-9-1.5h1.5V451h-1.5m-9-1.5h1.5V451h-1.5m-9-1.5h1.5V451h-1.5m-9-1.5h1.5V451h-1.5m-9-1.5h1.5V451h-1.5m-9-1.5h1.5V451h-1.5m-9-1.5h1.5V451h-1.5m-9-1.5h1.5V451h-1.5m-9-1.5h1.5V451h-1.5m-9-1.5h1.5V451h-1.5m-9-1.5h1.5V451h-1.5m-9-1.5h1.5V451h-1.5m-9-1.5h1.5V451h-1.5m-9-1.5h1.5V451h-1.5m-9-1.5h1.5V451h-1.5m-9-1.5h1.5V451h-1.5m-9-1.5h1.5V451h-1.5m-9-1.5h1.5V451h-1.5m-9-1.5h1.5V451h-1.5m-9-1.5h1.5V451h-1.5m-9-1.5h1.5V451h-1.5m-9-1.5h1.5V451h-1.5m-9-1.5h1.5V451h-1.5m-9-1.5h1.5V451h-1.5m-9-1.5h1.5V451h-1.5m-9-1.5h1.5V451h-1.5m-9-1.5h1.5V451h-1.5m-9-1.5h1.5V451h-1.5m-9-1.5h1.5V451h-1.5m-9-1.5h1.51V451h-1.51m-9-1.5h1.5V451h-1.5m-9-1.5h1.5V451h-1.5m-9-1.5h1.5V451h-1.5m-9-1.5h1.51V451h-1.51m-9-1.5h1.5V451h-1.5m-9-1.5h1.5V451h-1.5m-9-1.5h1.5V451h-1.5m-9-1.5h1.51V451h-1.51m-9-1.5h1.5V451h-1.5m-9-1.5h1.5V451h-1.5m-9-1.5h1.5V451h-1.5m-9-1.5h1.5V451h-1.5m-9-1.5h1.5V451h-1.5m-9-1.5h1.5V451h-1.5m-9-1.5h1.5V451h-1.5m-9-1.5h1.5V451h-1.5m-9-1.5h1.5V451h-1.5m-9-1.5h1.5V451h-1.5m-9-1.5h1.5V451h-1.5m-9-1.5h1.5V451h-1.5m-9-1.5h1.5V451h-1.5m-9-1.5h1.5V451h-1.5m-9-1.5h1.5V451h-1.5m-9-1.5h1.5V451h-1.5m-9-1.5h1.5V451h-1.5m-9-1.5h1.5V451h-1.5m-9-1.5h1.5V451h-1.5m-9-1.5h1.5V451h-1.5m-9-1.5h1.5V451h-1.5m-9-1.5h1.5V451h-1.5m-9-1.5h1.5V451h-1.5m-9-1.5h1.5V451h-1.5m-9-1.5h1.5V451h-1.5m-9-1.5h1.5V451h-1.5m-9-1.5h1.5V451h-1.5m-9-1.5h1.5V451h-1.5m-9-1.5h1.5V451h-1.5m-9-1.5h1.5V451h-1.5m-9-1.5h1.5V451h-1.5m-9-1.5h1.5V451h-1.5m-9-1.5h1.5V451h-1.5m-9-1.5h1.5V451h-1.5m-9-1.5h1.5V451h-1.5m-9-1.5h1.5V451h-1.5m-9-1.5h1.5V451h-1.5m-9-1.5h1.5V451h-1.5m-9-1.5h1.51V451h-1.51m-9-1.5h1.5V451h-1.5m-9-1.5h1.5V451h-1.5m-9-1.5h1.5V451h-1.5m-9-1.5h1.51V451H778.7m-9-1.5h1.5V451h-1.5m-9-1.5h1.5V451h-1.5m-9-1.5h1.5V451h-1.5m-9-1.5h1.5V451h-1.5m-9-1.5h1.5V451h-1.5m-9-1.5h1.5V451h-1.5m-9-1.5h1.5V451h-1.5m-9-1.5h1.5V451h-1.5m-9-1.5h1.5V451h-1.5m-9-1.5h1.5V451h-1.5m-9-1.5h1.5V451h-1.5m-9-1.5h1.5V451h-1.5m-9-1.5h1.5V451h-1.5m-9-1.5h1.5V451h-1.5m-9-1.5h1.5V451h-1.5m-9-1.5h1.5V451h-1.5m-9-1.5h1.5V451h-1.5m-9-1.5h1.5V451h-1.5m-9-1.5h1.5V451h-1.5m-9-1.5h1.5V451h-1.5m-9-1.5h1.5V451h-1.5m-9-1.5h1.5V451h-1.5m-9-1.5h1.5V451h-1.5m-9-1.5h1.5V451h-1.5m-9-1.5h1.5V451h-1.5m-9-1.5h1.5V451h-1.5m-9-1.5h1.5V451h-1.5m-9-1.5h1.5V451h-1.5m-9-1.5h1.5V451h-1.5m-9-1.5h1.5V451h-1.5m-9-1.5h1.5V451h-1.5m-9-1.5h1.5V451h-1.5m-9-1.5h1.5V451h-1.5m-9-1.5h1.5V451h-1.5m-9-1.5h1.5V451h-1.5m-9-1.5h1.5V451h-1.5m-9-1.5h1.5V451h-1.5m-9-1.5h1.5V451h-1.5m-9-1.5h1.5V451h-1.5m-9-1.5h1.5V451h-1.5m-9-1.5h1.5V451h-1.5m-9-1.5h1.5V451h-1.5m-9-1.5h1.51V451h-1.51m-9-1.5h1.5V451h-1.5m-9-1.5h1.5V451h-1.5m-9-1.5h1.5V451h-1.5m-9-1.5h1.51V451h-1.51m-9-1.5h1.5V451h-1.5m-9-1.5h1.5V451h-1.5m-9-1.5h1.5V451h-1.5m-9-1.5h1.5V451h-1.5m-9-1.5h1.5V451h-1.5m-9-1.5h1.5V451h-1.5m-9-1.5h1.5V451h-1.5m-9-1.5h1.5V451h-1.5m-9-1.5h1.5V451h-1.5m-9-1.5h1.5V451h-1.5m-9-1.5h1.5V451h-1.5m-9-1.5h1.5V451h-1.5m-9-1.5h1.5V451h-1.5m-9-1.5h1.5V451h-1.5m-9-1.5h1.5V451h-1.5m-9-1.5H213V451h-1.5m-9-1.5H204V451h-1.5m-9-1.5H195V451h-1.5m-9-1.5H186V451h-1.5m-9-1.5H177V451h-1.5m-9-1.5H168V451h-1.5"/><text class="cls-11" transform="translate(115.93 460.53)">80</text><path class="cls-10" d="M1868,336.18h1.5v1.5H1868m-9-1.5h1.5v1.5H1859m-9-1.5h1.5v1.5H1850m-9-1.5h1.5v1.5H1841m-9-1.5h1.5v1.5H1832m-9-1.5h1.5v1.5H1823m-9-1.5h1.5v1.5H1814m-9-1.5h1.5v1.5H1805m-9-1.5h1.5v1.5H1796m-9-1.5h1.5v1.5H1787m-9-1.5h1.5v1.5H1778m-9-1.5h1.5v1.5H1769m-9-1.5h1.5v1.5H1760m-9-1.5h1.5v1.5H1751m-9-1.5h1.5v1.5H1742m-9-1.5h1.5v1.5H1733m-9-1.5h1.5v1.5H1724m-9-1.5h1.5v1.5H1715m-9-1.5h1.5v1.5H1706m-9-1.5h1.5v1.5H1697m-9-1.5h1.5v1.5H1688m-9-1.5h1.5v1.5H1679m-9-1.5h1.5v1.5H1670m-9-1.5h1.5v1.5H1661m-9-1.5h1.5v1.5H1652m-9-1.5h1.5v1.5H1643m-9-1.5h1.5v1.5H1634m-9-1.5h1.51v1.5h-1.51m-9-1.5h1.5v1.5h-1.5m-9-1.5h1.5v1.5h-1.5m-9-1.5h1.5v1.5h-1.5m-9-1.5h1.51v1.5h-1.51m-9-1.5h1.5v1.5h-1.5m-9-1.5h1.5v1.5h-1.5m-9-1.5h1.5v1.5h-1.5m-9-1.5h1.5v1.5h-1.5m-9-1.5h1.5v1.5h-1.5m-9-1.5h1.5v1.5h-1.5m-9-1.5h1.5v1.5h-1.5m-9-1.5h1.5v1.5h-1.5m-9-1.5h1.5v1.5h-1.5m-9-1.5h1.5v1.5h-1.5m-9-1.5h1.5v1.5h-1.5m-9-1.5h1.5v1.5h-1.5m-9-1.5h1.5v1.5h-1.5m-9-1.5h1.5v1.5h-1.5m-9-1.5h1.5v1.5h-1.5m-9-1.5h1.5v1.5h-1.5m-9-1.5h1.5v1.5h-1.5m-9-1.5h1.5v1.5h-1.5m-9-1.5h1.5v1.5h-1.5m-9-1.5h1.5v1.5h-1.5m-9-1.5h1.5v1.5h-1.5m-9-1.5h1.5v1.5h-1.5m-9-1.5h1.5v1.5h-1.5m-9-1.5h1.5v1.5h-1.5m-9-1.5h1.5v1.5h-1.5m-9-1.5h1.5v1.5h-1.5m-9-1.5h1.5v1.5h-1.5m-9-1.5h1.5v1.5h-1.5m-9-1.5h1.5v1.5h-1.5m-9-1.5h1.5v1.5h-1.5m-9-1.5h1.5v1.5h-1.5m-9-1.5h1.5v1.5h-1.5m-9-1.5h1.5v1.5h-1.5m-9-1.5h1.5v1.5h-1.5m-9-1.5h1.5v1.5h-1.5m-9-1.5h1.5v1.5h-1.5m-9-1.5h1.5v1.5h-1.5m-9-1.5h1.5v1.5h-1.5m-9-1.5h1.51v1.5h-1.51m-9-1.5h1.5v1.5h-1.5m-9-1.5h1.5v1.5h-1.5m-9-1.5h1.5v1.5h-1.5m-9-1.5h1.51v1.5h-1.51m-9-1.5h1.5v1.5h-1.5m-9-1.5h1.5v1.5h-1.5m-9-1.5h1.5v1.5h-1.5m-9-1.5h1.51v1.5h-1.51m-9-1.5h1.5v1.5h-1.5m-9-1.5h1.5v1.5h-1.5m-9-1.5h1.5v1.5h-1.5m-9-1.5h1.5v1.5h-1.5m-9-1.5h1.5v1.5h-1.5m-9-1.5h1.5v1.5h-1.5m-9-1.5h1.5v1.5h-1.5m-9-1.5h1.5v1.5h-1.5m-9-1.5h1.5v1.5h-1.5m-9-1.5h1.5v1.5h-1.5m-9-1.5h1.5v1.5h-1.5m-9-1.5h1.5v1.5h-1.5m-9-1.5h1.5v1.5h-1.5m-9-1.5h1.5v1.5h-1.5m-9-1.5h1.5v1.5h-1.5m-9-1.5h1.5v1.5h-1.5m-9-1.5h1.5v1.5h-1.5m-9-1.5h1.5v1.5h-1.5m-9-1.5h1.5v1.5h-1.5m-9-1.5h1.5v1.5h-1.5m-9-1.5h1.5v1.5h-1.5m-9-1.5h1.5v1.5h-1.5m-9-1.5h1.5v1.5h-1.5m-9-1.5h1.5v1.5h-1.5m-9-1.5h1.5v1.5h-1.5m-9-1.5h1.5v1.5h-1.5m-9-1.5h1.5v1.5h-1.5m-9-1.5h1.5v1.5h-1.5m-9-1.5h1.5v1.5h-1.5m-9-1.5h1.5v1.5h-1.5m-9-1.5h1.5v1.5h-1.5m-9-1.5h1.5v1.5h-1.5m-9-1.5h1.5v1.5h-1.5m-9-1.5h1.5v1.5h-1.5m-9-1.5h1.5v1.5h-1.5m-9-1.5h1.5v1.5h-1.5m-9-1.5h1.5v1.5h-1.5m-9-1.5h1.5v1.5h-1.5m-9-1.5h1.51v1.5h-1.51m-9-1.5h1.5v1.5h-1.5m-9-1.5h1.5v1.5h-1.5m-9-1.5h1.5v1.5h-1.5m-9-1.5h1.51v1.5H778.7m-9-1.5h1.5v1.5h-1.5m-9-1.5h1.5v1.5h-1.5m-9-1.5h1.5v1.5h-1.5m-9-1.5h1.5v1.5h-1.5m-9-1.5h1.5v1.5h-1.5m-9-1.5h1.5v1.5h-1.5m-9-1.5h1.5v1.5h-1.5m-9-1.5h1.5v1.5h-1.5m-9-1.5h1.5v1.5h-1.5m-9-1.5h1.5v1.5h-1.5m-9-1.5h1.5v1.5h-1.5m-9-1.5h1.5v1.5h-1.5m-9-1.5h1.5v1.5h-1.5m-9-1.5h1.5v1.5h-1.5m-9-1.5h1.5v1.5h-1.5m-9-1.5h1.5v1.5h-1.5m-9-1.5h1.5v1.5h-1.5m-9-1.5h1.5v1.5h-1.5m-9-1.5h1.5v1.5h-1.5m-9-1.5h1.5v1.5h-1.5m-9-1.5h1.5v1.5h-1.5m-9-1.5h1.5v1.5h-1.5m-9-1.5h1.5v1.5h-1.5m-9-1.5h1.5v1.5h-1.5m-9-1.5h1.5v1.5h-1.5m-9-1.5h1.5v1.5h-1.5m-9-1.5h1.5v1.5h-1.5m-9-1.5h1.5v1.5h-1.5m-9-1.5h1.5v1.5h-1.5m-9-1.5h1.5v1.5h-1.5m-9-1.5h1.5v1.5h-1.5m-9-1.5h1.5v1.5h-1.5m-9-1.5h1.5v1.5h-1.5m-9-1.5h1.5v1.5h-1.5m-9-1.5h1.5v1.5h-1.5m-9-1.5h1.5v1.5h-1.5m-9-1.5h1.5v1.5h-1.5m-9-1.5h1.5v1.5h-1.5m-9-1.5h1.5v1.5h-1.5m-9-1.5h1.5v1.5h-1.5m-9-1.5h1.5v1.5h-1.5m-9-1.5h1.5v1.5h-1.5m-9-1.5h1.51v1.5h-1.51m-9-1.5h1.5v1.5h-1.5m-9-1.5h1.5v1.5h-1.5m-9-1.5h1.5v1.5h-1.5m-9-1.5h1.51v1.5h-1.51m-9-1.5h1.5v1.5h-1.5m-9-1.5h1.5v1.5h-1.5m-9-1.5h1.5v1.5h-1.5m-9-1.5h1.5v1.5h-1.5m-9-1.5h1.5v1.5h-1.5m-9-1.5h1.5v1.5h-1.5m-9-1.5h1.5v1.5h-1.5m-9-1.5h1.5v1.5h-1.5m-9-1.5h1.5v1.5h-1.5m-9-1.5h1.5v1.5h-1.5m-9-1.5h1.5v1.5h-1.5m-9-1.5h1.5v1.5h-1.5m-9-1.5h1.5v1.5h-1.5m-9-1.5h1.5v1.5h-1.5m-9-1.5h1.5v1.5h-1.5m-9-1.5H213v1.5h-1.5m-9-1.5H204v1.5h-1.5m-9-1.5H195v1.5h-1.5m-9-1.5H186v1.5h-1.5m-9-1.5H177v1.5h-1.5m-9-1.5H168v1.5h-1.5"/><text class="cls-11" transform="translate(98.13 347.17)">100</text><path class="cls-10" d="M1868,222.82h1.5v1.5H1868m-9-1.5h1.5v1.5H1859m-9-1.5h1.5v1.5H1850m-9-1.5h1.5v1.5H1841m-9-1.5h1.5v1.5H1832m-9-1.5h1.5v1.5H1823m-9-1.5h1.5v1.5H1814m-9-1.5h1.5v1.5H1805m-9-1.5h1.5v1.5H1796m-9-1.5h1.5v1.5H1787m-9-1.5h1.5v1.5H1778m-9-1.5h1.5v1.5H1769m-9-1.5h1.5v1.5H1760m-9-1.5h1.5v1.5H1751m-9-1.5h1.5v1.5H1742m-9-1.5h1.5v1.5H1733m-9-1.5h1.5v1.5H1724m-9-1.5h1.5v1.5H1715m-9-1.5h1.5v1.5H1706m-9-1.5h1.5v1.5H1697m-9-1.5h1.5v1.5H1688m-9-1.5h1.5v1.5H1679m-9-1.5h1.5v1.5H1670m-9-1.5h1.5v1.5H1661m-9-1.5h1.5v1.5H1652m-9-1.5h1.5v1.5H1643m-9-1.5h1.5v1.5H1634m-9-1.5h1.51v1.5h-1.51m-9-1.5h1.5v1.5h-1.5m-9-1.5h1.5v1.5h-1.5m-9-1.5h1.5v1.5h-1.5m-9-1.5h1.51v1.5h-1.51m-9-1.5h1.5v1.5h-1.5m-9-1.5h1.5v1.5h-1.5m-9-1.5h1.5v1.5h-1.5m-9-1.5h1.5v1.5h-1.5m-9-1.5h1.5v1.5h-1.5m-9-1.5h1.5v1.5h-1.5m-9-1.5h1.5v1.5h-1.5m-9-1.5h1.5v1.5h-1.5m-9-1.5h1.5v1.5h-1.5m-9-1.5h1.5v1.5h-1.5m-9-1.5h1.5v1.5h-1.5m-9-1.5h1.5v1.5h-1.5m-9-1.5h1.5v1.5h-1.5m-9-1.5h1.5v1.5h-1.5m-9-1.5h1.5v1.5h-1.5m-9-1.5h1.5v1.5h-1.5m-9-1.5h1.5v1.5h-1.5m-9-1.5h1.5v1.5h-1.5m-9-1.5h1.5v1.5h-1.5m-9-1.5h1.5v1.5h-1.5m-9-1.5h1.5v1.5h-1.5m-9-1.5h1.5v1.5h-1.5m-9-1.5h1.5v1.5h-1.5m-9-1.5h1.5v1.5h-1.5m-9-1.5h1.5v1.5h-1.5m-9-1.5h1.5v1.5h-1.5m-9-1.5h1.5v1.5h-1.5m-9-1.5h1.5v1.5h-1.5m-9-1.5h1.5v1.5h-1.5m-9-1.5h1.5v1.5h-1.5m-9-1.5h1.5v1.5h-1.5m-9-1.5h1.5v1.5h-1.5m-9-1.5h1.5v1.5h-1.5m-9-1.5h1.5v1.5h-1.5m-9-1.5h1.5v1.5h-1.5m-9-1.5h1.5v1.5h-1.5m-9-1.5h1.5v1.5h-1.5m-9-1.5h1.5v1.5h-1.5m-9-1.5h1.51v1.5h-1.51m-9-1.5h1.5v1.5h-1.5m-9-1.5h1.5v1.5h-1.5m-9-1.5h1.5v1.5h-1.5m-9-1.5h1.51v1.5h-1.51m-9-1.5h1.5v1.5h-1.5m-9-1.5h1.5v1.5h-1.5m-9-1.5h1.5v1.5h-1.5m-9-1.5h1.51v1.5h-1.51m-9-1.5h1.5v1.5h-1.5m-9-1.5h1.5v1.5h-1.5m-9-1.5h1.5v1.5h-1.5m-9-1.5h1.5v1.5h-1.5m-9-1.5h1.5v1.5h-1.5m-9-1.5h1.5v1.5h-1.5m-9-1.5h1.5v1.5h-1.5m-9-1.5h1.5v1.5h-1.5m-9-1.5h1.5v1.5h-1.5m-9-1.5h1.5v1.5h-1.5m-9-1.5h1.5v1.5h-1.5m-9-1.5h1.5v1.5h-1.5m-9-1.5h1.5v1.5h-1.5m-9-1.5h1.5v1.5h-1.5m-9-1.5h1.5v1.5h-1.5m-9-1.5h1.5v1.5h-1.5m-9-1.5h1.5v1.5h-1.5m-9-1.5h1.5v1.5h-1.5m-9-1.5h1.5v1.5h-1.5m-9-1.5h1.5v1.5h-1.5m-9-1.5h1.5v1.5h-1.5m-9-1.5h1.5v1.5h-1.5m-9-1.5h1.5v1.5h-1.5m-9-1.5h1.5v1.5h-1.5m-9-1.5h1.5v1.5h-1.5m-9-1.5h1.5v1.5h-1.5m-9-1.5h1.5v1.5h-1.5m-9-1.5h1.5v1.5h-1.5m-9-1.5h1.5v1.5h-1.5m-9-1.5h1.5v1.5h-1.5m-9-1.5h1.5v1.5h-1.5m-9-1.5h1.5v1.5h-1.5m-9-1.5h1.5v1.5h-1.5m-9-1.5h1.5v1.5h-1.5m-9-1.5h1.5v1.5h-1.5m-9-1.5h1.5v1.5h-1.5m-9-1.5h1.5v1.5h-1.5m-9-1.5h1.5v1.5h-1.5m-9-1.5h1.51v1.5h-1.51m-9-1.5h1.5v1.5h-1.5m-9-1.5h1.5v1.5h-1.5m-9-1.5h1.5v1.5h-1.5m-9-1.5h1.51v1.5H778.7m-9-1.5h1.5v1.5h-1.5m-9-1.5h1.5v1.5h-1.5m-9-1.5h1.5v1.5h-1.5m-9-1.5h1.5v1.5h-1.5m-9-1.5h1.5v1.5h-1.5m-9-1.5h1.5v1.5h-1.5m-9-1.5h1.5v1.5h-1.5m-9-1.5h1.5v1.5h-1.5m-9-1.5h1.5v1.5h-1.5m-9-1.5h1.5v1.5h-1.5m-9-1.5h1.5v1.5h-1.5m-9-1.5h1.5v1.5h-1.5m-9-1.5h1.5v1.5h-1.5m-9-1.5h1.5v1.5h-1.5m-9-1.5h1.5v1.5h-1.5m-9-1.5h1.5v1.5h-1.5m-9-1.5h1.5v1.5h-1.5m-9-1.5h1.5v1.5h-1.5m-9-1.5h1.5v1.5h-1.5m-9-1.5h1.5v1.5h-1.5m-9-1.5h1.5v1.5h-1.5m-9-1.5h1.5v1.5h-1.5m-9-1.5h1.5v1.5h-1.5m-9-1.5h1.5v1.5h-1.5m-9-1.5h1.5v1.5h-1.5m-9-1.5h1.5v1.5h-1.5m-9-1.5h1.5v1.5h-1.5m-9-1.5h1.5v1.5h-1.5m-9-1.5h1.5v1.5h-1.5m-9-1.5h1.5v1.5h-1.5m-9-1.5h1.5v1.5h-1.5m-9-1.5h1.5v1.5h-1.5m-9-1.5h1.5v1.5h-1.5m-9-1.5h1.5v1.5h-1.5m-9-1.5h1.5v1.5h-1.5m-9-1.5h1.5v1.5h-1.5m-9-1.5h1.5v1.5h-1.5m-9-1.5h1.5v1.5h-1.5m-9-1.5h1.5v1.5h-1.5m-9-1.5h1.5v1.5h-1.5m-9-1.5h1.5v1.5h-1.5m-9-1.5h1.5v1.5h-1.5m-9-1.5h1.51v1.5h-1.51m-9-1.5h1.5v1.5h-1.5m-9-1.5h1.5v1.5h-1.5m-9-1.5h1.5v1.5h-1.5m-9-1.5h1.51v1.5h-1.51m-9-1.5h1.5v1.5h-1.5m-9-1.5h1.5v1.5h-1.5m-9-1.5h1.5v1.5h-1.5m-9-1.5h1.5v1.5h-1.5m-9-1.5h1.5v1.5h-1.5m-9-1.5h1.5v1.5h-1.5m-9-1.5h1.5v1.5h-1.5m-9-1.5h1.5v1.5h-1.5m-9-1.5h1.5v1.5h-1.5m-9-1.5h1.5v1.5h-1.5m-9-1.5h1.5v1.5h-1.5m-9-1.5h1.5v1.5h-1.5m-9-1.5h1.5v1.5h-1.5m-9-1.5h1.5v1.5h-1.5m-9-1.5h1.5v1.5h-1.5m-9-1.5H213v1.5h-1.5m-9-1.5H204v1.5h-1.5m-9-1.5H195v1.5h-1.5m-9-1.5H186v1.5h-1.5m-9-1.5H177v1.5h-1.5m-9-1.5H168v1.5h-1.5"/><text class="cls-11" transform="translate(98.13 233.81)">120</text><path class="cls-10" d="M1868,109.46h1.5V111H1868m-9-1.5h1.5V111H1859m-9-1.5h1.5V111H1850m-9-1.5h1.5V111H1841m-9-1.5h1.5V111H1832m-9-1.5h1.5V111H1823m-9-1.5h1.5V111H1814m-9-1.5h1.5V111H1805m-9-1.5h1.5V111H1796m-9-1.5h1.5V111H1787m-9-1.5h1.5V111H1778m-9-1.5h1.5V111H1769m-9-1.5h1.5V111H1760m-9-1.5h1.5V111H1751m-9-1.5h1.5V111H1742m-9-1.5h1.5V111H1733m-9-1.5h1.5V111H1724m-9-1.5h1.5V111H1715m-9-1.5h1.5V111H1706m-9-1.5h1.5V111H1697m-9-1.5h1.5V111H1688m-9-1.5h1.5V111H1679m-9-1.5h1.5V111H1670m-9-1.5h1.5V111H1661m-9-1.5h1.5V111H1652m-9-1.5h1.5V111H1643m-9-1.5h1.5V111H1634m-9-1.5h1.51V111h-1.51m-9-1.5h1.5V111h-1.5m-9-1.5h1.5V111h-1.5m-9-1.5h1.5V111h-1.5m-9-1.5h1.51V111h-1.51m-9-1.5h1.5V111h-1.5m-9-1.5h1.5V111h-1.5m-9-1.5h1.5V111h-1.5m-9-1.5h1.5V111h-1.5m-9-1.5h1.5V111h-1.5m-9-1.5h1.5V111h-1.5m-9-1.5h1.5V111h-1.5m-9-1.5h1.5V111h-1.5m-9-1.5h1.5V111h-1.5m-9-1.5h1.5V111h-1.5m-9-1.5h1.5V111h-1.5m-9-1.5h1.5V111h-1.5m-9-1.5h1.5V111h-1.5m-9-1.5h1.5V111h-1.5m-9-1.5h1.5V111h-1.5m-9-1.5h1.5V111h-1.5m-9-1.5h1.5V111h-1.5m-9-1.5h1.5V111h-1.5m-9-1.5h1.5V111h-1.5m-9-1.5h1.5V111h-1.5m-9-1.5h1.5V111h-1.5m-9-1.5h1.5V111h-1.5m-9-1.5h1.5V111h-1.5m-9-1.5h1.5V111h-1.5m-9-1.5h1.5V111h-1.5m-9-1.5h1.5V111h-1.5m-9-1.5h1.5V111h-1.5m-9-1.5h1.5V111h-1.5m-9-1.5h1.5V111h-1.5m-9-1.5h1.5V111h-1.5m-9-1.5h1.5V111h-1.5m-9-1.5h1.5V111h-1.5m-9-1.5h1.5V111h-1.5m-9-1.5h1.5V111h-1.5m-9-1.5h1.5V111h-1.5m-9-1.5h1.5V111h-1.5m-9-1.5h1.5V111h-1.5m-9-1.5h1.5V111h-1.5m-9-1.5h1.51V111h-1.51m-9-1.5h1.5V111h-1.5m-9-1.5h1.5V111h-1.5m-9-1.5h1.5V111h-1.5m-9-1.5h1.51V111h-1.51m-9-1.5h1.5V111h-1.5m-9-1.5h1.5V111h-1.5m-9-1.5h1.5V111h-1.5m-9-1.5h1.51V111h-1.51m-9-1.5h1.5V111h-1.5m-9-1.5h1.5V111h-1.5m-9-1.5h1.5V111h-1.5m-9-1.5h1.5V111h-1.5m-9-1.5h1.5V111h-1.5m-9-1.5h1.5V111h-1.5m-9-1.5h1.5V111h-1.5m-9-1.5h1.5V111h-1.5m-9-1.5h1.5V111h-1.5m-9-1.5h1.5V111h-1.5m-9-1.5h1.5V111h-1.5m-9-1.5h1.5V111h-1.5m-9-1.5h1.5V111h-1.5m-9-1.5h1.5V111h-1.5m-9-1.5h1.5V111h-1.5m-9-1.5h1.5V111h-1.5m-9-1.5h1.5V111h-1.5m-9-1.5h1.5V111h-1.5m-9-1.5h1.5V111h-1.5m-9-1.5h1.5V111h-1.5m-9-1.5h1.5V111h-1.5m-9-1.5h1.5V111h-1.5m-9-1.5h1.5V111h-1.5m-9-1.5h1.5V111h-1.5m-9-1.5h1.5V111h-1.5m-9-1.5h1.5V111h-1.5m-9-1.5h1.5V111h-1.5m-9-1.5h1.5V111h-1.5m-9-1.5h1.5V111h-1.5m-9-1.5h1.5V111h-1.5m-9-1.5h1.5V111h-1.5m-9-1.5h1.5V111h-1.5m-9-1.5h1.5V111h-1.5m-9-1.5h1.5V111h-1.5m-9-1.5h1.5V111h-1.5m-9-1.5h1.5V111h-1.5m-9-1.5h1.5V111h-1.5m-9-1.5h1.5V111h-1.5m-9-1.5h1.51V111h-1.51m-9-1.5h1.5V111h-1.5m-9-1.5h1.5V111h-1.5m-9-1.5h1.5V111h-1.5m-9-1.5h1.51V111H778.7m-9-1.5h1.5V111h-1.5m-9-1.5h1.5V111h-1.5m-9-1.5h1.5V111h-1.5m-9-1.5h1.5V111h-1.5m-9-1.5h1.5V111h-1.5m-9-1.5h1.5V111h-1.5m-9-1.5h1.5V111h-1.5m-9-1.5h1.5V111h-1.5m-9-1.5h1.5V111h-1.5m-9-1.5h1.5V111h-1.5m-9-1.5h1.5V111h-1.5m-9-1.5h1.5V111h-1.5m-9-1.5h1.5V111h-1.5m-9-1.5h1.5V111h-1.5m-9-1.5h1.5V111h-1.5m-9-1.5h1.5V111h-1.5m-9-1.5h1.5V111h-1.5m-9-1.5h1.5V111h-1.5m-9-1.5h1.5V111h-1.5m-9-1.5h1.5V111h-1.5m-9-1.5h1.5V111h-1.5m-9-1.5h1.5V111h-1.5m-9-1.5h1.5V111h-1.5m-9-1.5h1.5V111h-1.5m-9-1.5h1.5V111h-1.5m-9-1.5h1.5V111h-1.5m-9-1.5h1.5V111h-1.5m-9-1.5h1.5V111h-1.5m-9-1.5h1.5V111h-1.5m-9-1.5h1.5V111h-1.5m-9-1.5h1.5V111h-1.5m-9-1.5h1.5V111h-1.5m-9-1.5h1.5V111h-1.5m-9-1.5h1.5V111h-1.5m-9-1.5h1.5V111h-1.5m-9-1.5h1.5V111h-1.5m-9-1.5h1.5V111h-1.5m-9-1.5h1.5V111h-1.5m-9-1.5h1.5V111h-1.5m-9-1.5h1.5V111h-1.5m-9-1.5h1.5V111h-1.5m-9-1.5h1.5V111h-1.5m-9-1.5h1.51V111h-1.51m-9-1.5h1.5V111h-1.5m-9-1.5h1.5V111h-1.5m-9-1.5h1.5V111h-1.5m-9-1.5h1.51V111h-1.51m-9-1.5h1.5V111h-1.5m-9-1.5h1.5V111h-1.5m-9-1.5h1.5V111h-1.5m-9-1.5h1.5V111h-1.5m-9-1.5h1.5V111h-1.5m-9-1.5h1.5V111h-1.5m-9-1.5h1.5V111h-1.5m-9-1.5h1.5V111h-1.5m-9-1.5h1.5V111h-1.5m-9-1.5h1.5V111h-1.5m-9-1.5h1.5V111h-1.5m-9-1.5h1.5V111h-1.5m-9-1.5h1.5V111h-1.5m-9-1.5h1.5V111h-1.5m-9-1.5h1.5V111h-1.5m-9-1.5H213V111h-1.5m-9-1.5H204V111h-1.5m-9-1.5H195V111h-1.5m-9-1.5H186V111h-1.5m-9-1.5H177V111h-1.5m-9-1.5H168V111h-1.5"/><text class="cls-11" transform="translate(98.13 120.45)">140</text><text class="cls-11" transform="matrix(0, -1, 1, 0, 84.51, 688.76)">NUMBER OF NOTIFICATIONS</text></g><g class="cls-8"><text class="cls-11" transform="translate(274.15 940.98)">July 2020</text><text class="cls-11" transform="translate(523.73 940.98)">August 2020</text><text class="cls-11" transform="translate(766.22 940.98)">September 2020</text><text class="cls-11" transform="translate(1058.52 940.98)">October 2020</text><text class="cls-11" transform="translate(1312.58 940.98)">November 2020</text><text class="cls-11" transform="translate(1583.52 940.98)">December 2020</text></g><g class="cls-12"><rect class="cls-13" x="274.91" y="540.23" width="125.51" height="362.75"/><rect class="cls-13" x="545.86" y="517.56" width="125.51" height="385.43"/><rect class="cls-13" x="816.81" y="540.23" width="125.51" height="362.75"/><rect class="cls-13" x="1087.76" y="659.26" width="125.51" height="243.72"/><rect class="cls-13" x="1358.71" y="738.61" width="125.51" height="164.37"/><rect class="cls-13" x="1629.66" y="664.93" width="125.51" height="238.06"/><rect class="cls-14" x="274.91" y="330.52" width="125.51" height="209.72"/><rect class="cls-14" x="545.86" y="324.85" width="125.51" height="192.71"/><rect class="cls-14" x="816.81" y="324.85" width="125.51" height="215.39"/><rect class="cls-14" x="1087.76" y="477.88" width="125.51" height="181.38"/><rect class="cls-14" x="1358.71" y="579.91" width="125.51" height="158.7"/><rect class="cls-14" x="1629.66" y="466.55" width="125.51" height="198.38"/><rect class="cls-15" x="274.91" y="319.18" width="125.51" height="11.34"/><rect class="cls-15" x="545.86" y="290.84" width="125.51" height="34.01"/><rect class="cls-15" x="816.81" y="302.18" width="125.51" height="22.67"/><rect class="cls-15" x="1087.76" y="460.88" width="125.51" height="17"/><rect class="cls-15" x="1358.71" y="551.57" width="125.51" height="28.34"/><rect class="cls-15" x="1629.66" y="438.21" width="125.51" height="28.34"/><path class="cls-4" d="M1695.49,437.46h1.5a.75.75,0,0,1,0,1.5h-1.5a.75.75,0,1,1,0-1.5Zm-9,0h1.5a.75.75,0,0,1,0,1.5h-1.5a.75.75,0,1,1,0-1.5Zm-9,0h1.5a.75.75,0,0,1,0,1.5h-1.5a.75.75,0,1,1,0-1.5Zm-9,0h1.5a.75.75,0,0,1,0,1.5h-1.5a.75.75,0,1,1,0-1.5Zm-9,0h1.5a.75.75,0,0,1,0,1.5h-1.5a.75.75,0,0,1,0-1.5Zm-9,0h1.5a.75.75,0,0,1,0,1.5h-1.5a.75.75,0,0,1,0-1.5Zm-9,0h1.5a.75.75,0,0,1,0,1.5h-1.5a.75.75,0,0,1,0-1.5Zm-9,0h1.5a.75.75,0,0,1,0,1.5h-1.5a.75.75,0,0,1,0-1.5Zm-9,0h1.5a.75.75,0,0,1,0,1.5h-1.5a.75.75,0,1,1,0-1.5Zm-9,0h1.5a.75.75,0,0,1,0,1.5h-1.5a.75.75,0,1,1,0-1.5Zm-9,0h1.5a.75.75,0,0,1,0,1.5h-1.5a.75.75,0,0,1,0-1.5Zm-9,0h1.5a.75.75,0,0,1,0,1.5h-1.5a.75.75,0,0,1,0-1.5Zm-9,0h1.5a.75.75,0,0,1,0,1.5h-1.5a.75.75,0,0,1,0-1.5Zm-9,0h1.5a.75.75,0,0,1,0,1.5h-1.5a.75.75,0,0,1,0-1.5Zm-9,0h1.5a.75.75,0,0,1,0,1.5h-1.5a.75.75,0,0,1,0-1.5Zm-8.29,2.22v-1.47a.67.67,0,0,1,.75-.75h0a.75.75,0,0,1,0,1.5h0v-.75h.76v1.47a.76.76,0,0,1-1.51,0Zm0,9v-1.5a.76.76,0,0,1,1.51,0v1.5a.76.76,0,0,1-1.51,0Zm0,9v-1.5a.76.76,0,0,1,1.51,0v1.5a.76.76,0,0,1-1.51,0Zm0,9v-1.5a.76.76,0,0,1,1.51,0v1.5a.76.76,0,0,1-1.51,0Zm0,9v-1.5a.76.76,0,0,1,1.51,0v1.5a.76.76,0,0,1-1.51,0Zm0,9v-1.5a.76.76,0,0,1,1.51,0v1.5a.76.76,0,0,1-1.51,0Zm0,9v-1.5a.76.76,0,0,1,1.51,0v1.5a.76.76,0,0,1-1.51,0Zm0,9v-1.5a.76.76,0,0,1,1.51,0v1.5a.76.76,0,0,1-1.51,0Zm0,9v-1.5a.76.76,0,0,1,1.51,0v1.5a.76.76,0,0,1-1.51,0Zm0,9v-1.5a.76.76,0,0,1,1.51,0v1.5a.76.76,0,0,1-1.51,0Zm0,9v-1.5a.76.76,0,0,1,1.51,0v1.5a.76.76,0,0,1-1.51,0Zm0,9v-1.5a.76.76,0,0,1,1.51,0v1.5a.76.76,0,0,1-1.51,0Zm0,9v-1.5a.76.76,0,0,1,1.51,0v1.5a.76.76,0,0,1-1.51,0Zm-4.32,3.17h1.5a.75.75,0,0,1,0,1.5h-1.5a.75.75,0,0,1,0-1.5Zm-9,0h1.5a.75.75,0,0,1,0,1.5h-1.5a.75.75,0,0,1,0-1.5Zm-9,0h1.5a.75.75,0,0,1,0,1.5h-1.5a.75.75,0,0,1,0-1.5Zm-9,0h1.5a.75.75,0,0,1,0,1.5h-1.5a.75.75,0,0,1,0-1.5Zm-9,0h1.5a.75.75,0,0,1,0,1.5h-1.5a.75.75,0,0,1,0-1.5Zm-9,0h1.5a.75.75,0,0,1,0,1.5h-1.5a.75.75,0,0,1,0-1.5Zm-9,0h1.5a.75.75,0,0,1,0,1.5h-1.5a.75.75,0,0,1,0-1.5Zm-9,0h1.5a.75.75,0,0,1,0,1.5h-1.5a.75.75,0,0,1,0-1.5Zm-9,0h1.5a.75.75,0,0,1,0,1.5h-1.5a.75.75,0,0,1,0-1.5Zm-9,0h1.5a.75.75,0,0,1,0,1.5h-1.5a.75.75,0,0,1,0-1.5Zm-9,0h1.5a.75.75,0,0,1,0,1.5h-1.5a.75.75,0,0,1,0-1.5Zm-9,0h1.5a.75.75,0,0,1,0,1.5h-1.5a.75.75,0,0,1,0-1.5Zm-9,0h1.5a.75.75,0,0,1,0,1.5h-1.5a.75.75,0,0,1,0-1.5Zm-9,0h1.5a.75.75,0,0,1,0,1.5h-1.5a.75.75,0,0,1,0-1.5Zm-9,0h1.5a.75.75,0,0,1,0,1.5h-1.5a.75.75,0,0,1,0-1.5Zm-9,0h1.5a.75.75,0,0,1,0,1.5h-1.5a.75.75,0,0,1,0-1.5Zm-9,0h1.5a.75.75,0,0,1,0,1.5h-1.5a.75.75,0,1,1,0-1.5Zm-9,0h1.5a.75.75,0,0,1,0,1.5h-1.5a.75.75,0,0,1,0-1.5Zm-9,0h1.5a.75.75,0,0,1,0,1.5h-1.5a.75.75,0,0,1,0-1.5Zm-9,0h1.5a.75.75,0,0,1,0,1.5h-1.5a.75.75,0,0,1,0-1.5Zm-9,0h1.51a.75.75,0,0,1,0,1.5h-1.51a.75.75,0,0,1,0-1.5Zm-9,0h1.5a.75.75,0,0,1,0,1.5h-1.5a.75.75,0,0,1,0-1.5Zm-9,0h1.5a.75.75,0,0,1,0,1.5h-1.5a.75.75,0,0,1,0-1.5Zm-9,0h1.5a.75.75,0,0,1,0,1.5h-1.5a.75.75,0,0,1,0-1.5Zm-9,0h1.51a.75.75,0,0,1,0,1.5h-1.51a.75.75,0,0,1,0-1.5Zm-9,0h1.5a.75.75,0,0,1,0,1.5h-1.5a.75.75,0,0,1,0-1.5Zm-9,0h1.5a.75.75,0,0,1,0,1.5h-1.5a.75.75,0,0,1,0-1.5Zm-9,0h1.5a.75.75,0,0,1,0,1.5h-1.5a.75.75,0,0,1,0-1.5Zm-9,0h1.5a.75.75,0,1,1,0,1.5h-1.5a.75.75,0,0,1,0-1.5Zm-9,0h1.5a.75.75,0,0,1,0,1.5h-1.5a.75.75,0,0,1,0-1.5Zm-4-3.45v1.49a.76.76,0,0,1-1.51,0v-1.49a.76.76,0,0,1,1.51,0Zm0-9v1.5a.76.76,0,0,1-1.51,0v-1.5a.76.76,0,0,1,1.51,0Zm0-9v1.5a.76.76,0,0,1-1.51,0v-1.5a.76.76,0,0,1,1.51,0Zm0-9v1.5a.76.76,0,0,1-1.51,0v-1.5a.76.76,0,0,1,1.51,0Zm0-9v1.5a.76.76,0,0,1-1.51,0v-1.5a.76.76,0,0,1,1.51,0Zm0-9v1.5a.76.76,0,0,1-1.51,0v-1.5a.76.76,0,0,1,1.51,0Zm0-9v1.5a.76.76,0,0,1-1.51,0v-1.5a.76.76,0,0,1,1.51,0Zm0-9v1.5a.76.76,0,0,1-1.51,0v-1.5a.76.76,0,0,1,1.51,0Zm0-9v1.5a.76.76,0,0,1-1.51,0v-1.5a.76.76,0,0,1,1.51,0Zm0-9v1.5a.76.76,0,0,1-1.51,0v-1.5a.76.76,0,0,1,1.51,0Zm-4.25-6.26h1.5a.75.75,0,0,1,0,1.5h-1.5a.75.75,0,0,1,0-1.5Zm-9,0h1.5a.75.75,0,0,1,0,1.5h-1.5a.75.75,0,0,1,0-1.5Zm-9,0h1.5a.75.75,0,0,1,0,1.5h-1.5a.75.75,0,0,1,0-1.5Zm-9,0h1.5a.75.75,0,0,1,0,1.5h-1.5a.75.75,0,0,1,0-1.5Zm-9,0h1.5a.75.75,0,0,1,0,1.5h-1.5a.75.75,0,0,1,0-1.5Zm-9,0h1.5a.75.75,0,0,1,0,1.5h-1.5a.75.75,0,0,1,0-1.5Zm-9,0h1.5a.75.75,0,0,1,0,1.5h-1.5a.75.75,0,0,1,0-1.5Zm-9,0h1.5a.75.75,0,0,1,0,1.5h-1.5a.75.75,0,0,1,0-1.5Zm-9,0h1.5a.75.75,0,0,1,0,1.5h-1.5a.75.75,0,0,1,0-1.5Zm-9,0h1.5a.75.75,0,0,1,0,1.5h-1.5a.75.75,0,0,1,0-1.5Zm-9,0h1.5a.75.75,0,0,1,0,1.5h-1.5a.75.75,0,0,1,0-1.5Zm-9,0h1.5a.75.75,0,0,1,0,1.5h-1.5a.75.75,0,0,1,0-1.5Zm-9,0h1.5a.75.75,0,0,1,0,1.5h-1.5a.75.75,0,0,1,0-1.5Zm-9,0h1.5a.75.75,0,0,1,0,1.5h-1.5a.75.75,0,0,1,0-1.5Zm-9,0h1.5a.75.75,0,0,1,0,1.5h-1.5a.75.75,0,0,1,0-1.5Zm-9,0h1.5a.75.75,0,0,1,0,1.5h-1.5a.75.75,0,0,1,0-1.5Zm-9,0h1.5a.75.75,0,0,1,0,1.5h-1.5a.75.75,0,0,1,0-1.5Zm-9,0h1.5a.75.75,0,0,1,0,1.5h-1.5a.75.75,0,0,1,0-1.5Zm-9,0h1.5a.75.75,0,0,1,0,1.5h-1.5a.75.75,0,0,1,0-1.5Zm-9,0h1.5a.75.75,0,0,1,0,1.5h-1.5a.75.75,0,0,1,0-1.5Zm-9,0h1.5a.75.75,0,0,1,0,1.5h-1.5a.75.75,0,0,1,0-1.5Zm-9,0h1.5a.75.75,0,0,1,0,1.5h-1.5a.75.75,0,0,1,0-1.5Zm-9,0h1.5a.75.75,0,0,1,0,1.5h-1.5a.75.75,0,0,1,0-1.5Zm-9,0h1.5a.75.75,0,0,1,0,1.5h-1.5a.75.75,0,0,1,0-1.5Zm-9,0h1.5a.75.75,0,0,1,0,1.5h-1.5a.75.75,0,0,1,0-1.5Zm-9,0h1.5a.75.75,0,0,1,0,1.5h-1.5a.75.75,0,0,1,0-1.5Zm-9,0h1.5a.75.75,0,0,1,0,1.5h-1.5a.75.75,0,0,1,0-1.5Zm-9,0h1.5a.75.75,0,0,1,0,1.5h-1.5a.75.75,0,0,1,0-1.5Zm-9,0h1.5a.75.75,0,0,1,0,1.5h-1.5a.75.75,0,0,1,0-1.5Zm-9,0h1.5a.75.75,0,0,1,0,1.5h-1.5a.75.75,0,0,1,0-1.5Zm-5.63-1.87v1.5a.76.76,0,0,1-1.51,0v-1.5a.76.76,0,0,1,1.51,0Zm0-9v1.5a.76.76,0,0,1-1.51,0v-1.5a.76.76,0,0,1,1.51,0Zm0-9v1.5a.76.76,0,0,1-1.51,0v-1.5a.76.76,0,0,1,1.51,0Zm0-9v1.5a.76.76,0,0,1-1.51,0v-1.5a.76.76,0,0,1,1.51,0Zm0-9v1.5a.76.76,0,0,1-1.51,0v-1.5a.76.76,0,0,1,1.51,0Zm0-9v1.5a.76.76,0,0,1-1.51,0v-1.5a.76.76,0,0,1,1.51,0Zm0-9v1.5a.76.76,0,0,1-1.51,0v-1.5a.76.76,0,0,1,1.51,0Zm0-9v1.5a.76.76,0,0,1-1.51,0v-1.5a.76.76,0,0,1,1.51,0Zm0-9v1.5a.76.76,0,0,1-1.51,0v-1.5a.76.76,0,0,1,1.51,0Zm0-9v1.5a.76.76,0,0,1-1.51,0v-1.5a.76.76,0,0,1,1.51,0Zm0-9v1.5a.76.76,0,0,1-1.51,0v-1.5a.76.76,0,0,1,1.51,0Zm0-9v1.5a.76.76,0,0,1-1.51,0v-1.5a.76.76,0,0,1,1.51,0Zm0-9v1.5a.76.76,0,0,1-1.51,0v-1.5a.76.76,0,0,1,1.51,0Zm0-9v1.5a.76.76,0,0,1-1.51,0v-1.5a.76.76,0,0,1,1.51,0Zm0-9v1.5a.76.76,0,0,1-1.51,0v-1.5a.76.76,0,0,1,1.51,0Zm0-9v1.5a.76.76,0,0,1-1.51,0v-1.5a.76.76,0,0,1,1.51,0Zm0-9v1.5a.76.76,0,0,1-1.51,0v-1.5a.76.76,0,0,1,1.51,0Zm0-9v1.5a.76.76,0,0,1-1.51,0v-1.5a.76.76,0,0,1,1.51,0Zm-6.63-3.87h1.5a.75.75,0,0,1,0,1.5h-1.5a.75.75,0,0,1,0-1.5Zm-9,0h1.5a.75.75,0,0,1,0,1.5h-1.5a.75.75,0,0,1,0-1.5Zm-9,0h1.5a.75.75,0,0,1,0,1.5h-1.5a.75.75,0,0,1,0-1.5Zm-9,0h1.51a.75.75,0,0,1,0,1.5h-1.51a.75.75,0,0,1,0-1.5Zm-9,0h1.5a.75.75,0,0,1,0,1.5h-1.5a.75.75,0,0,1,0-1.5Zm-9,0h1.5a.75.75,0,0,1,0,1.5h-1.5a.75.75,0,0,1,0-1.5Zm-9,0h1.5a.75.75,0,0,1,0,1.5h-1.5a.75.75,0,0,1,0-1.5Zm-9,0h1.51a.75.75,0,0,1,0,1.5h-1.51a.75.75,0,0,1,0-1.5Zm-9,0h1.5a.75.75,0,0,1,0,1.5h-1.5a.75.75,0,0,1,0-1.5Zm-9,0h1.5a.75.75,0,0,1,0,1.5h-1.5a.75.75,0,0,1,0-1.5Zm-9,0h1.5a.75.75,0,0,1,0,1.5h-1.5a.75.75,0,0,1,0-1.5Zm-9,0h1.5a.75.75,0,1,1,0,1.5h-1.5a.75.75,0,0,1,0-1.5Zm-9,0h1.5a.75.75,0,0,1,0,1.5h-1.5a.75.75,0,0,1,0-1.5Zm-9,0h1.5a.75.75,0,0,1,0,1.5h-1.5a.75.75,0,0,1,0-1.5Zm-9,0h1.5a.75.75,0,0,1,0,1.5h-1.5a.75.75,0,0,1,0-1.5Zm-9,0h1.5a.75.75,0,0,1,0,1.5h-1.5a.75.75,0,0,1,0-1.5Zm-9,0h1.5a.75.75,0,0,1,0,1.5h-1.5a.75.75,0,0,1,0-1.5Zm-9,0h1.5a.75.75,0,0,1,0,1.5h-1.5a.75.75,0,0,1,0-1.5Zm-9,0h1.5a.75.75,0,0,1,0,1.5h-1.5a.75.75,0,0,1,0-1.5Zm-9,0h1.5a.75.75,0,0,1,0,1.5h-1.5a.75.75,0,0,1,0-1.5Zm-9,0h1.5a.75.75,0,0,1,0,1.5h-1.5a.75.75,0,0,1,0-1.5Zm-9,0h1.5a.75.75,0,0,1,0,1.5h-1.5a.75.75,0,0,1,0-1.5Zm-9,0h1.5a.75.75,0,0,1,0,1.5h-1.5a.75.75,0,0,1,0-1.5Zm-9,0h1.5a.75.75,0,0,1,0,1.5h-1.5a.75.75,0,0,1,0-1.5Zm-9,0h1.5a.75.75,0,0,1,0,1.5h-1.5a.75.75,0,0,1,0-1.5Zm-9,0h1.5a.75.75,0,0,1,0,1.5h-1.5a.75.75,0,0,1,0-1.5Zm-9,0h1.5a.75.75,0,0,1,0,1.5h-1.5a.75.75,0,0,1,0-1.5Zm-9,0h1.5a.75.75,0,0,1,0,1.5h-1.5a.75.75,0,0,1,0-1.5Zm-9,0h1.5a.75.75,0,0,1,0,1.5h-1.5a.75.75,0,0,1,0-1.5Zm-9,0h1.5a.75.75,0,0,1,0,1.5h-1.5a.75.75,0,0,1,0-1.5Zm-3.25-4.25v1.5a.67.67,0,0,1-.75.75.66.66,0,0,1-.75-.75v-1.5a.66.66,0,0,1,.75-.75A.67.67,0,0,1,749.83,297.18Zm-3.42-7.09h1.51a.75.75,0,0,1,0,1.5h-1.51a.75.75,0,0,1,0-1.5Zm-9,0h1.5a.75.75,0,0,1,0,1.5h-1.5a.75.75,0,0,1,0-1.5Zm-9,0h1.5a.75.75,0,0,1,0,1.5h-1.5a.75.75,0,0,1,0-1.5Zm-9,0h1.5a.75.75,0,0,1,0,1.5h-1.5a.75.75,0,0,1,0-1.5Zm-9,0h1.51a.75.75,0,0,1,0,1.5H710.4a.75.75,0,0,1,0-1.5Zm-9,0h1.5a.75.75,0,0,1,0,1.5h-1.5a.75.75,0,0,1,0-1.5Zm-9,0h1.5a.75.75,0,0,1,0,1.5h-1.5a.75.75,0,0,1,0-1.5Zm-9,0h1.5a.75.75,0,0,1,0,1.5h-1.5a.75.75,0,0,1,0-1.5Zm-9,0h1.5a.75.75,0,1,1,0,1.5h-1.5a.75.75,0,0,1,0-1.5Zm-9,0h1.5a.75.75,0,0,1,0,1.5h-1.5a.75.75,0,0,1,0-1.5Zm-9,0h1.5a.75.75,0,0,1,0,1.5h-1.5a.75.75,0,0,1,0-1.5Zm-9,0h1.5a.75.75,0,0,1,0,1.5h-1.5a.75.75,0,0,1,0-1.5Zm-9,0h1.5a.75.75,0,0,1,0,1.5h-1.5a.75.75,0,0,1,0-1.5Zm-9,0h1.5a.75.75,0,0,1,0,1.5h-1.5a.75.75,0,0,1,0-1.5Zm-9,0h1.5a.75.75,0,0,1,0,1.5h-1.5a.75.75,0,0,1,0-1.5Zm-9,0h1.5a.75.75,0,0,1,0,1.5h-1.5a.75.75,0,0,1,0-1.5Zm-9,0h1.5a.75.75,0,0,1,0,1.5h-1.5a.75.75,0,0,1,0-1.5Zm-9,0h1.5a.75.75,0,0,1,0,1.5h-1.5a.75.75,0,0,1,0-1.5Zm-9,0h1.5a.75.75,0,0,1,0,1.5h-1.5a.75.75,0,0,1,0-1.5Zm-9,0h1.5a.75.75,0,0,1,0,1.5h-1.5a.75.75,0,0,1,0-1.5Zm-9,0h1.5a.75.75,0,0,1,0,1.5h-1.5a.75.75,0,0,1,0-1.5Zm-9,0h1.5a.75.75,0,0,1,0,1.5h-1.5a.75.75,0,0,1,0-1.5Zm-9,0h1.5a.75.75,0,0,1,0,1.5h-1.5a.75.75,0,0,1,0-1.5Zm-9,0h1.5a.75.75,0,0,1,0,1.5h-1.5a.75.75,0,0,1,0-1.5Zm-9,0h1.5a.75.75,0,0,1,0,1.5h-1.5a.75.75,0,0,1,0-1.5Zm-9,0h1.5a.75.75,0,0,1,0,1.5h-1.5a.75.75,0,0,1,0-1.5Zm-9,0h1.5a.75.75,0,0,1,0,1.5h-1.5a.75.75,0,0,1,0-1.5Zm-9,0h1.5a.75.75,0,0,1,0,1.5h-1.5a.75.75,0,0,1,0-1.5Zm-9,0h1.5a.75.75,0,0,1,0,1.5h-1.5a.75.75,0,0,1,0-1.5Zm-9,0h1.5a.75.75,0,0,1,0,1.5h-1.5a.75.75,0,0,1,0-1.5Zm-8,2.53v-1.5a.75.75,0,0,1,1.5,0v1.5a.75.75,0,0,1-1.5,0Zm0,9v-1.5a.75.75,0,0,1,1.5,0v1.5a.75.75,0,0,1-1.5,0Zm0,9v-1.5a.75.75,0,0,1,1.5,0v1.5a.75.75,0,0,1-1.5,0Zm.32,7.81h.43v.75h-.75v-1.06a.75.75,0,0,1,1.5,0v1.06a.66.66,0,0,1-.75.75h-.43a.75.75,0,0,1,0-1.5Zm-9,0h1.51a.75.75,0,0,1,0,1.5h-1.51a.75.75,0,0,1,0-1.5Zm-9,0h1.5a.75.75,0,0,1,0,1.5h-1.5a.75.75,0,0,1,0-1.5Zm-9,0h1.5a.75.75,0,0,1,0,1.5h-1.5a.75.75,0,0,1,0-1.5Zm-9,0h1.5a.75.75,0,0,1,0,1.5h-1.5a.75.75,0,0,1,0-1.5Zm-9,0h1.5a.75.75,0,1,1,0,1.5h-1.5a.75.75,0,0,1,0-1.5Zm-9,0h1.5a.75.75,0,0,1,0,1.5h-1.5a.75.75,0,0,1,0-1.5Zm-9,0h1.5a.75.75,0,0,1,0,1.5h-1.5a.75.75,0,0,1,0-1.5Zm-9,0h1.5a.75.75,0,0,1,0,1.5h-1.5a.75.75,0,0,1,0-1.5Zm-9,0h1.5a.75.75,0,0,1,0,1.5h-1.5a.75.75,0,0,1,0-1.5Zm-9,0h1.5a.75.75,0,0,1,0,1.5h-1.5a.75.75,0,0,1,0-1.5Zm-9,0h1.5a.75.75,0,0,1,0,1.5h-1.5a.75.75,0,0,1,0-1.5Zm-9,0h1.5a.75.75,0,0,1,0,1.5h-1.5a.75.75,0,0,1,0-1.5Zm-9,0h1.5a.75.75,0,0,1,0,1.5h-1.5a.75.75,0,0,1,0-1.5Zm-9,0h1.5a.75.75,0,0,1,0,1.5h-1.5a.75.75,0,0,1,0-1.5Zm-9,0h1.5a.75.75,0,0,1,0,1.5h-1.5a.75.75,0,0,1,0-1.5Z"/></g><g class="cls-8"><text class="cls-11" transform="translate(315.95 307.18)">103</text><text class="cls-11" transform="translate(1679.58 426.21)">82</text><text class="cls-11" transform="translate(586.9 278.84)">108</text><text class="cls-11" transform="translate(1408.63 539.57)">62</text><text class="cls-11" transform="translate(1137.69 448.89)">78</text><text class="cls-11" transform="translate(857.84 290.18)">106</text></g><g class="cls-16"><path class="cls-13" d="M525.91,63.33a7.49,7.49,0,0,0,2.15,5.26,7.3,7.3,0,0,0,2.39,1.61,7.19,7.19,0,0,0,5.61,0,7.16,7.16,0,0,0,2.38-1.61,7.41,7.41,0,0,0-5.19-12.69,7.25,7.25,0,0,0-2.8.56,7.46,7.46,0,0,0-4.54,6.87"/></g><g class="cls-7"><text class="cls-17" transform="translate(546.21 71.97)">Malicious or criminal attack</text></g><g class="cls-18"><path class="cls-14" d="M944.41,63.33a7.49,7.49,0,0,0,2.15,5.26A7.3,7.3,0,0,0,949,70.2a7.19,7.19,0,0,0,5.61,0,7.16,7.16,0,0,0,2.38-1.61,7.41,7.41,0,0,0-5.19-12.69,7.25,7.25,0,0,0-2.8.56,7.46,7.46,0,0,0-4.54,6.87"/></g><g class="cls-7"><text class="cls-17" transform="translate(964.76 71.97)">Human error</text></g><g class="cls-19"><path class="cls-15" d="M1158.91,63.33a7.49,7.49,0,0,0,2.15,5.26,7.3,7.3,0,0,0,2.39,1.61,7.19,7.19,0,0,0,5.61,0,7.16,7.16,0,0,0,2.38-1.61,7.41,7.41,0,0,0-5.19-12.69,7.25,7.25,0,0,0-2.8.56,7.46,7.46,0,0,0-4.54,6.87"/></g><g class="cls-7"><text class="cls-17" transform="translate(1178.84 71.97)">System fault</text></g><g class="cls-20"><path class="cls-4" d="M1368.91,63.33a7.49,7.49,0,0,0,2.15,5.26,7.3,7.3,0,0,0,2.39,1.61,7.19,7.19,0,0,0,5.61,0,7.16,7.16,0,0,0,2.38-1.61,7.41,7.41,0,0,0-5.19-12.69,7.25,7.25,0,0,0-2.8.56,7.46,7.46,0,0,0-4.54,6.87"/></g></svg>